<?xml version="1.0" encoding="UTF-8" standalone="no"?>
<svg
   xmlns:dc="http://purl.org/dc/elements/1.1/"
   xmlns:cc="http://creativecommons.org/ns#"
   xmlns:rdf="http://www.w3.org/1999/02/22-rdf-syntax-ns#"
   xmlns:svg="http://www.w3.org/2000/svg"
   xmlns="http://www.w3.org/2000/svg"
   xmlns:sodipodi="http://sodipodi.sourceforge.net/DTD/sodipodi-0.dtd"
   xmlns:inkscape="http://www.inkscape.org/namespaces/inkscape"
   height="68"
   width="68"
   id="svg8"
   xml:space="preserve"
   enable-background="new 0 0 100 100"
   viewBox="0 0 68 68"
   y="0px"
   x="0px"
   version="1.1"
   sodipodi:docname="add_spot.svg"
   inkscape:version="0.92.3 (2405546, 2018-03-11)"><sodipodi:namedview
     pagecolor="#ffffff"
     bordercolor="#666666"
     borderopacity="1"
     objecttolerance="10"
     gridtolerance="10"
     guidetolerance="10"
     inkscape:pageopacity="0"
     inkscape:pageshadow="2"
     inkscape:window-width="1920"
     inkscape:window-height="1015"
     id="namedview10"
     showgrid="false"
     inkscape:zoom="2.98"
     inkscape:cx="-54.565314"
     inkscape:cy="29.714201"
     inkscape:window-x="0"
     inkscape:window-y="0"
     inkscape:window-maximized="1"
     inkscape:current-layer="svg8" /><metadata
     id="metadata14"><rdf:RDF><cc:Work
         rdf:about=""><dc:format>image/svg+xml</dc:format><dc:type
           rdf:resource="http://purl.org/dc/dcmitype/StillImage" /><dc:title></dc:title></cc:Work></rdf:RDF></metadata><defs
     id="defs12" /><g
     id="g852"
     transform="matrix(0.8379136,0,0,0.8379136,144.57009,90.471323)"><path
       id="path819"
       d="m -115.38084,-43.959186 c -0.005,0 -0.01,0 -0.016,0 -0.631,0 -1.143,0.511 -1.143,1.143 0,0.632 0.511,1.143 1.143,1.143 0.006,0 0.011,0 0.017,0 h 15.998 c 0.005,0 0.01,0 0.016,0 0.631,0 1.143,-0.511 1.143,-1.143 0,-0.632 -0.511,-1.143 -1.143,-1.143 -0.006,0 -0.011,0 -0.017,0 z"
       inkscape:connector-curvature="0" /><path
       id="path821"
       d="m -106.23784,-50.816186 c 0,-0.005 0,-0.01 0,-0.016 0,-0.631 -0.511,-1.143 -1.143,-1.143 -0.632,0 -1.143,0.511 -1.143,1.143 0,0.006 0,0.011 0,0.017 v -0.001 15.999 c 0,0.005 0,0.01 0,0.016 0,0.631 0.511,1.143 1.143,1.143 0.632,0 1.143,-0.511 1.143,-1.143 0,-0.006 0,-0.011 0,-0.017 v 10e-4 z"
       inkscape:connector-curvature="0" /><path
       id="path823"
       d="m -107.38084,-58.816186 c -8.823,0 -15.999,7.177 -15.999,15.999 0,8.822 7.177,15.999 15.999,15.999 8.823,0 15.999,-7.177 15.999,-15.999 0,-8.822 -7.177,-15.999 -15.999,-15.999 z m 0,2.286 c 7.588,0 13.714,6.127 13.714,13.714 0,7.587 -6.126,13.714 -13.714,13.714 -7.588,0 -13.714,-6.126 -13.714,-13.714 0,-7.588 6.126,-13.714 13.714,-13.714 z"
       inkscape:connector-curvature="0" /></g><g
     transform="translate(0.16437204,-0.19006431)"
     id="g921"><path
       style="stroke-width:0.81596446"
       d="M 54.38648,27.543766 C 42.595097,18.581056 30.721148,9.7253463 18.851498,0.86601331 17.337149,-0.80015891 15.338122,1.1400958 13.471711,1.1265414 9.8795176,1.8607621 6.2873241,2.5949828 2.6951307,3.3292035 0.59639864,1.0483154 -0.62979458,4.9222717 0.00192715,6.6622497 0.0150237,18.301929 -0.03609916,29.941717 0.02906873,41.581308 c 0.85078008,2.555925 3.79741717,0.01984 2.83415067,-1.821685 0,-10.451435 0,-20.90287 0,-31.3543042 1.2043636,3.2420992 2.4087272,6.4841972 3.6130908,9.7262962 -0.4279954,1.977409 2.3253434,2.003396 3.6216218,2.77564 12.893203,5.284005 25.786405,10.568009 38.679608,15.852014 4.24754,0.227709 7.74377,-5.558788 5.60894,-9.215503 z m -18.969542,1.418962 c -4.325156,-1.772547 -8.650311,-3.545093 -12.975467,-5.31764 3.225782,-3.458517 5.660476,-7.669711 6.952017,-12.22478 3.737389,2.802566 7.474779,5.605132 11.212168,8.407698 -0.840494,3.446281 -2.695604,6.622449 -5.188718,9.134722 z M 11.610358,9.5321657 C 12.509762,8.0317365 14.505192,4.6239216 15.253817,4.6883546 13.752168,8.5914983 11.617599,12.249422 8.965001,15.482179 9.6107633,13.403983 10.540813,11.423767 11.610358,9.5321657 Z M 6.8541017,15.032582 C 5.5776613,11.596012 4.3012208,8.1594412 3.0247804,4.7228708 6.6805729,3.9754473 10.336365,3.2280239 13.992158,2.4806004 10.798527,6.1242428 8.3258346,10.412208 6.8541017,15.032582 Z M 14.63269,10.994374 c 1.631405,-2.2668088 2.512244,-6.2246609 3.742114,-7.8339853 3.038852,2.2865205 6.095633,4.5492406 9.12073,6.8540163 -1.090348,4.776712 -3.660358,9.160451 -7.103907,12.623337 -1.786193,-0.369111 -3.431415,-1.327294 -5.160403,-1.947631 -1.960091,-0.80333 -3.920181,-1.60666 -5.8802718,-2.40999 2.0740318,-2.180997 3.7940768,-4.675976 5.2817378,-7.285747 z m 37.587405,21.308913 c -0.751922,1.613011 -2.788461,3.015035 -4.436117,1.728 -3.40593,-1.395772 -6.81186,-2.791545 -10.21779,-4.187317 2.226638,-2.4754 3.928314,-5.428867 4.908027,-8.613321 3.403116,2.551521 6.806231,5.103041 10.209347,7.654562 0.489365,1.123926 0.112553,2.405895 -0.463467,3.418076 z"
       id="path2"
       inkscape:connector-curvature="0" /><path
       style="color:#000000;clip-rule:nonzero;display:inline;overflow:visible;visibility:visible;opacity:0.98000004;isolation:auto;mix-blend-mode:normal;color-interpolation:sRGB;color-interpolation-filters:linearRGB;solid-color:#000000;solid-opacity:1;fill:#db4436;fill-opacity:0;fill-rule:nonzero;stroke:#000000;stroke-width:0.07640016;stroke-linecap:butt;stroke-linejoin:miter;stroke-miterlimit:4;stroke-dasharray:none;stroke-dashoffset:0;stroke-opacity:1;paint-order:stroke markers fill;color-rendering:auto;image-rendering:auto;shape-rendering:auto;text-rendering:auto;enable-background:accumulate"
       d="m 15.214396,20.595648 c -1.453682,-1.184767 -7.1669271,-1.339962 -4.41922,-3.871983 3.302202,-3.990378 5.710288,-8.6704249 7.333933,-13.5756317 3.165419,2.2217432 6.243886,4.566957 9.232911,7.0207507 -1.108023,4.681181 -3.64638,8.963071 -6.996765,12.389791 -1.75968,-0.409762 -3.437176,-1.334881 -5.150859,-1.962927 z"
       id="path812"
       inkscape:connector-curvature="0" /><path
       style="color:#000000;clip-rule:nonzero;display:inline;overflow:visible;visibility:visible;opacity:0.98000004;isolation:auto;mix-blend-mode:normal;color-interpolation:sRGB;color-interpolation-filters:linearRGB;solid-color:#000000;solid-opacity:1;fill:#808080;fill-opacity:1;fill-rule:nonzero;stroke:#000000;stroke-width:0.07640016;stroke-linecap:butt;stroke-linejoin:miter;stroke-miterlimit:4;stroke-dasharray:none;stroke-dashoffset:0;stroke-opacity:1;paint-order:stroke markers fill;color-rendering:auto;image-rendering:auto;shape-rendering:auto;text-rendering:auto;enable-background:accumulate"
       d="m 15.036089,20.414285 c -1.460968,-1.033931 -6.7052072,-1.391494 -3.902732,-3.895786 3.11905,-3.880007 5.281982,-8.4200206 7.087411,-13.0311697 3.084989,2.0264098 6.039373,4.2504725 8.851066,6.6413247 -0.354649,3.589724 -2.534986,6.679187 -4.465296,9.615239 -1.094362,1.866419 -2.617363,3.527381 -4.666813,1.862967 -0.96869,-0.395549 -1.935186,-0.796442 -2.903636,-1.192575 z"
       id="path871"
       inkscape:connector-curvature="0" /><path
       style="color:#000000;clip-rule:nonzero;display:inline;overflow:visible;visibility:visible;opacity:0.98000004;isolation:auto;mix-blend-mode:normal;color-interpolation:sRGB;color-interpolation-filters:linearRGB;solid-color:#000000;solid-opacity:1;fill:#808080;fill-opacity:1;fill-rule:nonzero;stroke:#000000;stroke-width:0.07640016;stroke-linecap:butt;stroke-linejoin:miter;stroke-miterlimit:4;stroke-dasharray:none;stroke-dashoffset:0;stroke-opacity:1;paint-order:stroke markers fill;color-rendering:auto;image-rendering:auto;shape-rendering:auto;text-rendering:auto;enable-background:accumulate"
       d="M 9.3315829,14.659154 C 10.694523,11.060512 12.577306,7.63107 15.090178,4.7039242 13.771495,8.327321 11.823658,11.76081 9.3638179,14.713443 Z"
       id="path873"
       inkscape:connector-curvature="0" /><path
       style="color:#000000;clip-rule:nonzero;display:inline;overflow:visible;visibility:visible;opacity:0.98000004;isolation:auto;mix-blend-mode:normal;color-interpolation:sRGB;color-interpolation-filters:linearRGB;solid-color:#000000;solid-opacity:1;fill:#808080;fill-opacity:1;fill-rule:nonzero;stroke:#000000;stroke-width:0.07640016;stroke-linecap:butt;stroke-linejoin:miter;stroke-miterlimit:4;stroke-dasharray:none;stroke-dashoffset:0;stroke-opacity:1;paint-order:stroke markers fill;color-rendering:auto;image-rendering:auto;shape-rendering:auto;text-rendering:auto;enable-background:accumulate"
       d="m 43.581836,32.231352 c -1.366917,-1.144254 -6.219955,-1.149181 -4.981628,-3.489917 1.627034,-2.199701 2.983333,-4.614859 3.883292,-7.20357 3.456666,2.299235 6.776547,4.801043 9.972267,7.450107 1.301721,2.69779 -1.983384,6.705102 -4.831595,4.859242 -1.356878,-0.514711 -2.699228,-1.066532 -4.042336,-1.615862 z"
       id="path875"
       inkscape:connector-curvature="0" /><path
       style="color:#000000;clip-rule:nonzero;display:inline;overflow:visible;visibility:visible;opacity:0.98000004;isolation:auto;mix-blend-mode:normal;color-interpolation:sRGB;color-interpolation-filters:linearRGB;solid-color:#000000;solid-opacity:1;fill:#ffffff;fill-opacity:1;fill-rule:nonzero;stroke:#000000;stroke-width:0.1175542;stroke-linecap:butt;stroke-linejoin:miter;stroke-miterlimit:4;stroke-dasharray:none;stroke-dashoffset:0;stroke-opacity:1;paint-order:stroke markers fill;color-rendering:auto;image-rendering:auto;shape-rendering:auto;text-rendering:auto;enable-background:accumulate"
       d="m 28.935509,26.218917 c -1.705357,-1.065755 -5.262581,-1.422865 -5.767526,-3.028253 2.641673,-3.412794 4.972144,-7.150797 6.242771,-11.30355 1.77496,0.591977 3.234342,2.385333 4.927561,3.387309 1.88845,1.381694 3.784386,2.764395 5.51162,4.347662 1.053801,2.586426 -1.704729,4.685446 -2.503397,6.968154 -1.658813,3.513288 -5.027173,1.019554 -7.44612,0.02704 l -0.482539,-0.198977 z"
       id="path817"
       inkscape:connector-curvature="0" /></g></svg>