<?xml version="1.0" encoding="UTF-8" standalone="no"?>
<svg
   xmlns:osb="http://www.openswatchbook.org/uri/2009/osb"
   xmlns:dc="http://purl.org/dc/elements/1.1/"
   xmlns:cc="http://creativecommons.org/ns#"
   xmlns:rdf="http://www.w3.org/1999/02/22-rdf-syntax-ns#"
   xmlns:svg="http://www.w3.org/2000/svg"
   xmlns="http://www.w3.org/2000/svg"
   xmlns:sodipodi="http://sodipodi.sourceforge.net/DTD/sodipodi-0.dtd"
   xmlns:inkscape="http://www.inkscape.org/namespaces/inkscape"
   version="1.1"
   x="0px"
   y="0px"
   viewBox="0 0 100 100"
   enable-background="new 0 0 100 100"
   xml:space="preserve"
   id="svg14"
   sodipodi:docname="hiker.svg"
   width="100"
   height="100"
   inkscape:version="0.92.5 (2060ec1f9f, 2020-04-08)"><metadata
     id="metadata20"><rdf:RDF><cc:Work
         rdf:about=""><dc:format>image/svg+xml</dc:format><dc:type
           rdf:resource="http://purl.org/dc/dcmitype/StillImage" /><dc:title /></cc:Work></rdf:RDF></metadata><defs
     id="defs18"><linearGradient
       id="linearGradient5975"
       osb:paint="solid"><stop
         style="stop-color:#b30000;stop-opacity:1;"
         offset="0"
         id="stop5973" /></linearGradient><linearGradient
       id="linearGradient4535"
       osb:paint="solid"><stop
         style="stop-color:#b30000;stop-opacity:1;"
         offset="0"
         id="stop4533" /></linearGradient></defs><sodipodi:namedview
     pagecolor="#ffffff"
     bordercolor="#666666"
     borderopacity="1"
     objecttolerance="10"
     gridtolerance="10"
     guidetolerance="10"
     inkscape:pageopacity="0"
     inkscape:pageshadow="2"
     inkscape:window-width="1920"
     inkscape:window-height="1015"
     id="namedview16"
     showgrid="false"
     fit-margin-top="0"
     fit-margin-left="0"
     fit-margin-right="0"
     fit-margin-bottom="0"
     inkscape:zoom="1.888"
     inkscape:cx="-149.81486"
     inkscape:cy="36.645"
     inkscape:window-x="0"
     inkscape:window-y="0"
     inkscape:window-maximized="1"
     inkscape:current-layer="svg14" /><path
     inkscape:connector-curvature="0"
     id="path2"
     d="m 60.918393,10.175 c 0,4.407 -3.568,7.981 -7.979,7.981 -4.409,0 -7.979,-3.575 -7.979,-7.981 0,-4.4079996 3.57,-7.9809995 7.979,-7.9809995 4.41,-10e-4 7.979,3.5729999 7.979,7.9809995 z"
     style="fill:#e4d059;fill-opacity:1;stroke:#000000;stroke-opacity:1" /><path
     inkscape:connector-curvature="0"
     id="path4"
     d="m 31.411393,6.9780004 c -6.062,-1.469 -12.149,2.253 -13.611,8.3079996 l -4.915,20.316 16.538,4.107 -0.543,2.188 -16.525,-4.105 -1.602,6.624 c -1.1780003,4.843 0.858,7.192 5.713,8.448 0.71,0.181 8.474,1.97 11.569,2.68 l -1.227,4.913 c -0.189,0.753 0.27,1.521 1.026,1.708 0.12,0.028 0.488,0.109 0.605,0.107 0.628,-0.005 1.195,-0.432 1.355,-1.068 l 9.925,-40.614 c 1.464,-6.054 -2.256,-12.1479996 -8.308,-13.6119996 z m 0.839,23.3309996 -12.019,-3.002 2.433,-10.081 2.009,0.484 -1.952,8.088 8.028,2.004 2.018,-8.003 2.004,0.506 z"
     style="fill:#0093da;fill-opacity:1;stroke:#000000;stroke-opacity:1" /><path
     inkscape:connector-curvature="0"
     id="path6"
     d="m 85.998393,19.909 h -37.036 c -0.295,0 -0.864,0.046 -1.1,0.113 -4.369,0.749 -5.972,5.946 -5.972,5.946 l -4.616,19.394 13.099,-7.64 -1.189,-2.571 c -0.259,-0.56 -0.015,-1.224 0.545,-1.478 0.556,-0.264 1.22,-0.018 1.479,0.543 l 1.564,3.371 c 0.002,0.009 0.009,0.015 0.013,0.021 0.013,0.018 0.011,0.035 0.018,0.055 l 3.019,6.508 0.304,0.617 c 0.177,0.347 0.814,0.998 1.408,1.24 l 12.142,4.634 -7.754,13.333 -10.168,-9.548 2.036,-9.349 -2.474,-5.342 -14.757,8.607 -5.71,23.974 -12.087,18.908 c -0.448,0.631 -0.672,1.381 -0.672,2.276 -0.178,1.515 0.225,2.828 1.205,3.952 0.979,1.111 2.232,1.755 3.748,1.939 2.231,0.172 3.926,-0.72 5.083,-2.682 l 12.894,-20.234 c 0.266,-0.541 0.621,-1.291 1.072,-2.285 l 2.564,-10.8 11.917,9.774 -14.088,24.216 c -0.386,0.666 -0.159,1.52 0.505,1.909 0.221,0.13 0.461,0.19 0.701,0.19 0.479,0 0.947,-0.251 1.206,-0.695 l 12.035,-20.691 -0.017,16.402 c 0.54,2.59 2.189,4.017 4.955,4.289 1.515,0.088 2.83,-0.356 3.945,-1.338 1.112,-0.991 1.715,-2.191 1.803,-3.614 0,-0.273 0,-0.667 0,-1.207 l -0.101,-20.46 c 0,-1.616 -0.375,-3.229 -1.401,-4.252 l -2.104,-1.984 8.389,-14.43 c 2.229,0.134 3.83,-1.137 4.153,-3.337 0.219,-1.454 -0.75,-2.797 -1.909,-3.234 l -12.502,-4.452 -4.899,-13.445 h 28.755 c 1.972,0 3.57,-1.599 3.57,-3.571 -0.001,-1.974 -1.6,-3.572 -3.571,-3.572 z"
     style="fill:#53dd79;fill-opacity:1;stroke:#000000;stroke-opacity:1" /></svg>