<?xml version="1.0" encoding="UTF-8" standalone="no"?>
<svg
   xmlns:dc="http://purl.org/dc/elements/1.1/"
   xmlns:cc="http://creativecommons.org/ns#"
   xmlns:rdf="http://www.w3.org/1999/02/22-rdf-syntax-ns#"
   xmlns:svg="http://www.w3.org/2000/svg"
   xmlns="http://www.w3.org/2000/svg"
   xmlns:sodipodi="http://sodipodi.sourceforge.net/DTD/sodipodi-0.dtd"
   xmlns:inkscape="http://www.inkscape.org/namespaces/inkscape"
   height="68"
   width="68"
   id="svg8"
   xml:space="preserve"
   enable-background="new 0 0 100 100"
   viewBox="0 0 68 68"
   y="0px"
   x="0px"
   version="1.1"
   sodipodi:docname="landing.svg"
   inkscape:version="0.92.3 (2405546, 2018-03-11)"><sodipodi:namedview
     pagecolor="#ffffff"
     bordercolor="#666666"
     borderopacity="1"
     objecttolerance="10"
     gridtolerance="10"
     guidetolerance="10"
     inkscape:pageopacity="0"
     inkscape:pageshadow="2"
     inkscape:window-width="1920"
     inkscape:window-height="1015"
     id="namedview9"
     showgrid="false"
     inkscape:zoom="3.4705882"
     inkscape:cx="-1.1525424"
     inkscape:cy="34"
     inkscape:window-x="0"
     inkscape:window-y="0"
     inkscape:window-maximized="1"
     inkscape:current-layer="svg8" /><metadata
     id="metadata14"><rdf:RDF><cc:Work
         rdf:about=""><dc:format>image/svg+xml</dc:format><dc:type
           rdf:resource="http://purl.org/dc/dcmitype/StillImage" /><dc:title /></cc:Work></rdf:RDF></metadata><defs
     id="defs12" /><path
     id="path2"
     d="m 66.920087,41.575542 c -0.081,-0.115 -0.18,-0.217 -0.291,-0.301 l -44.27,-33.1920001 c -0.377,-0.283 -0.877,-0.342 -1.31,-0.156 -0.252,0.109 -0.45,0.296 -0.59,0.521 L 3.5700875,11.899542 c -0.293,-0.56 -0.872,-0.946 -1.548,-0.946 -0.97,0 -1.75500001,0.786 -1.75500001,1.754 v 45.718 c 0,0.969 0.78500001,1.755 1.75500001,1.755 0.969,0 1.754,-0.786 1.754,-1.755 v -40.305 l 4.428,11.92 c -0.136,0.246 -0.201,0.53 -0.159,0.818 0.067,0.461 0.373,0.852 0.804,1.029 l 51.1969995,20.982 c 0.159,0.065 0.329,0.098 0.5,0.098 h 0.044 c 0.147,-0.005 3.641,-0.167 5.964,-4.261 2.369,-4.171 0.449,-7.013 0.366,-7.131 z m -23.248,1.739 -15.902,-6.517 c 1.151,-1.17 3.123,-3.448 5.189,-7.09 2.031,-3.579 2.937,-6.335 3.331,-7.892 l 13.741,10.304 c -0.107,0.586 -0.598,2.769 -2.4,5.944 -1.799,3.168 -3.474,4.81 -3.959,5.251 z m -29.176,-23.813 c 1.808,-3.186 3.544,-5.39 4.766,-6.753 -0.643,1.845 -1.682,4.305 -3.351,7.245 -1.702,3 -3.35,5.236 -4.657,6.8 0.519,-1.685 1.481,-4.189 3.242,-7.292 z m -5.8289995,6.741 -4.693,-12.635 13.4409995,-2.748 c -1.341,1.477 -3.235,3.866 -5.208,7.342 -1.945,3.427 -2.9859995,6.186 -3.5399995,8.041 z m 9.5329995,-4.949 c 2.492,-4.392 3.677,-7.82 4.226,-9.872 l 11.543,8.655 c 0,0.006 -0.004,0.01 -0.005,0.016 -0.004,0.032 -0.428,3.266 -3.293,8.315 -2.823,4.975 -5.447,7.19 -5.573,7.295 l -13.371,-5.48 c 1.509,-1.573 3.935,-4.456 6.473,-8.929 z m 46.065,26.115 c -1.275,2.25 -2.928,2.774 -3.54,2.895 l -14.419,-5.909 c 0.9,-0.967 2.227,-2.588 3.613,-5.03 1.349,-2.376 2.047,-4.286 2.402,-5.526 l 12.512,9.381 c 0.21,0.443 0.712,1.936 -0.568,4.189 z" /><path
     id="path812"
     d="m 18.912991,33.060321 c -3.398832,-1.392623 -6.379244,-2.611083 -6.623138,-2.707687 -0.442193,-0.175146 -0.44108,-0.178169 0.394416,-1.071382 3.248291,-3.472685 7.352602,-10.49219 9.052502,-15.482276 0.385944,-1.132944 0.722691,-2.087603 0.748328,-2.121466 0.09478,-0.125189 11.315336,8.406976 11.315336,8.604235 0,0.983555 -1.647692,5.276623 -2.85494,7.438557 -1.518627,2.719548 -3.854002,5.971245 -5.224818,7.274859 l -0.627992,0.597206 z"
     style="color:#000000;clip-rule:nonzero;display:inline;overflow:visible;visibility:visible;opacity:0.98000004;isolation:auto;mix-blend-mode:normal;color-interpolation:sRGB;color-interpolation-filters:linearRGB;solid-color:#000000;solid-opacity:1;fill:#db4436;fill-opacity:1;fill-rule:nonzero;stroke:#000000;stroke-width:0.09363172;stroke-linecap:butt;stroke-linejoin:miter;stroke-miterlimit:4;stroke-dasharray:none;stroke-dashoffset:0;stroke-opacity:1;paint-order:stroke markers fill;color-rendering:auto;image-rendering:auto;shape-rendering:auto;text-rendering:auto;enable-background:accumulate" /><path
     id="path814"
     d="m 11.703348,25.784889 c 0,-0.473522 1.921117,-4.546378 3.086053,-6.542574 1.349647,-2.31271 3.810566,-5.818784 3.971357,-5.657993 0.122571,0.122571 -0.789863,2.212556 -2.033966,4.658924 -1.539258,3.02675 -5.023444,8.257521 -5.023444,7.541643 z"
     style="color:#000000;clip-rule:nonzero;display:inline;overflow:visible;visibility:visible;opacity:0.98000004;isolation:auto;mix-blend-mode:normal;color-interpolation:sRGB;color-interpolation-filters:linearRGB;solid-color:#000000;solid-opacity:1;fill:#db4436;fill-opacity:1;fill-rule:nonzero;stroke:#000000;stroke-width:0.09363172;stroke-linecap:butt;stroke-linejoin:miter;stroke-miterlimit:4;stroke-dasharray:none;stroke-dashoffset:0;stroke-opacity:1;paint-order:stroke markers fill;color-rendering:auto;image-rendering:auto;shape-rendering:auto;text-rendering:auto;enable-background:accumulate" /><path
     id="path816"
     d="m 53.678525,47.320383 c -3.846819,-1.583294 -7.019587,-2.905434 -7.050597,-2.93809 -0.03101,-0.03266 0.487073,-0.775657 1.151294,-1.651114 0.664221,-0.875457 1.66252,-2.392291 2.218442,-3.370742 0.931318,-1.639167 2.154589,-4.388321 2.154589,-4.842178 0,-0.105507 0.0811,-0.241952 0.180213,-0.30321 0.09912,-0.06126 2.943181,1.96138 6.320142,4.49475 4.575916,3.432818 6.177103,4.734383 6.28587,5.109624 0.582672,2.010213 -1.671961,5.645258 -3.891211,6.273629 -0.238811,0.06762 -2.908993,-0.937103 -7.368742,-2.772669 z"
     style="color:#000000;clip-rule:nonzero;display:inline;overflow:visible;visibility:visible;opacity:0.98000004;isolation:auto;mix-blend-mode:normal;color-interpolation:sRGB;color-interpolation-filters:linearRGB;solid-color:#000000;solid-opacity:1;fill:#db4436;fill-opacity:1;fill-rule:nonzero;stroke:#000000;stroke-width:0.09363172;stroke-linecap:butt;stroke-linejoin:miter;stroke-miterlimit:4;stroke-dasharray:none;stroke-dashoffset:0;stroke-opacity:1;paint-order:stroke markers fill;color-rendering:auto;image-rendering:auto;shape-rendering:auto;text-rendering:auto;enable-background:accumulate" /><path
     style="color:#000000;clip-rule:nonzero;display:inline;overflow:visible;visibility:visible;opacity:0.98000004;isolation:auto;mix-blend-mode:normal;color-interpolation:sRGB;color-interpolation-filters:linearRGB;solid-color:#000000;solid-opacity:1;fill:#ffffff;fill-opacity:1;fill-rule:nonzero;stroke:#000000;stroke-width:0.14406779;stroke-linecap:butt;stroke-linejoin:miter;stroke-miterlimit:4;stroke-dasharray:none;stroke-dashoffset:0;stroke-opacity:1;paint-order:stroke markers fill;color-rendering:auto;image-rendering:auto;shape-rendering:auto;text-rendering:auto;enable-background:accumulate"
     d="m 35.728814,39.951882 c -4.041102,-1.672791 -7.395666,-3.081064 -7.454588,-3.129496 -0.05892,-0.04843 0.536923,-0.904256 1.324097,-1.901832 2.677553,-3.393226 4.837876,-7.234383 6.143117,-10.92275 l 0.674349,-1.905586 6.734598,5.052739 c 7.700785,5.777636 7.171424,4.879523 5.256355,8.917923 -1.67561,3.533442 -4.202598,7.030986 -5.026824,6.957508 -0.167006,-0.01489 -3.610003,-1.395716 -7.651104,-3.068506 z"
     id="path819"
     inkscape:connector-curvature="0" /></svg>