<?xml version="1.0" encoding="UTF-8" standalone="no"?>
<!-- Created with Inkscape (http://www.inkscape.org/) -->

<svg
   xmlns:osb="http://www.openswatchbook.org/uri/2009/osb"
   xmlns:dc="http://purl.org/dc/elements/1.1/"
   xmlns:cc="http://creativecommons.org/ns#"
   xmlns:rdf="http://www.w3.org/1999/02/22-rdf-syntax-ns#"
   xmlns:svg="http://www.w3.org/2000/svg"
   xmlns="http://www.w3.org/2000/svg"
   xmlns:sodipodi="http://sodipodi.sourceforge.net/DTD/sodipodi-0.dtd"
   xmlns:inkscape="http://www.inkscape.org/namespaces/inkscape"
   width="82.430489mm"
   height="51.6717mm"
   viewBox="0 0 82.430489 51.6717"
   version="1.1"
   id="svg8"
   inkscape:version="0.92.3 (2405546, 2018-03-11)"
   sodipodi:docname="nav-drawer.svg"
   inkscape:export-filename="/home/gorka/MyProjects/Android/Tolomet/Media/launcher.png"
   inkscape:export-xdpi="600"
   inkscape:export-ydpi="600">
  <defs
     id="defs2">
    <linearGradient
       id="linearGradient821"
       osb:paint="solid">
      <stop
         style="stop-color:#000000;stop-opacity:1;"
         offset="0"
         id="stop819" />
    </linearGradient>
    <clipPath
       clipPathUnits="userSpaceOnUse"
       id="clipPath4551">
      <g
         inkscape:label="Clip"
         id="use4553">
        <path
           inkscape:connector-curvature="0"
           id="path819"
           d="m 49.902447,193.26745 v -1.71979 h 1.00542 c 0.55298,0 1.13793,0.13252 1.2999,0.29449 0.20297,0.20296 2.46903,0.28528 7.29116,0.26488 l 6.99668,-0.0296 v 1.4549 1.4549 h -1.00457 c -0.96599,0 -1.00855,-0.0381 -1.10835,-0.99219 l -0.10378,-0.99218 -0.0445,0.99218 -0.0445,0.99219 h -2.36811 c -1.97322,0 -2.41438,-0.0772 -2.64563,-0.46302 -0.26432,-0.44097 -0.29469,-0.44097 -0.63763,0 -0.30628,0.39383 -0.82031,0.46302 -3.43978,0.46302 h -3.07969 v -0.65315 c 0,-0.7732 -0.66402,-0.66524 -0.87519,0.14229 -0.0783,0.29955 -0.36273,0.51086 -0.68754,0.51086 -0.50537,0 -0.55393,-0.15075 -0.55393,-1.71979 z m 4.15211,0.20347 c -0.0671,-0.25743 -0.12639,-0.11087 -0.13178,0.3257 -0.005,0.43656 0.0495,0.64718 0.12197,0.46805 0.0725,-0.17913 0.0769,-0.53632 0.01,-0.79375 z m 14.10414,0.354 c 0,-0.78909 -0.12743,-1.21122 -0.39687,-1.31461 -0.21828,-0.0838 -0.39688,-0.33462 -0.39688,-0.55747 0,-0.30891 0.30908,-0.40518 1.30087,-0.40518 0.73613,0 1.34437,0.13052 1.40108,0.30066 0.0551,0.16536 0.59063,0.30066 1.19,0.30066 1.03824,0 1.09935,0.0452 1.29228,0.95611 l 0.2025,0.95611 0.15091,-0.92604 0.1509,-0.92604 2.51354,-0.0436 c 1.41566,-0.0246 2.658,0.0763 2.84427,0.23083 0.1819,0.15096 0.33073,0.79154 0.33073,1.4235 v 1.14902 l -4.6159,0.005 -4.61591,0.005 -0.0989,-1.25206 -0.0989,-1.25207 -0.0477,1.25678 c -0.0404,1.06448 -0.12865,1.25676 -0.57685,1.25676 -0.44886,0 -0.52917,-0.17639 -0.52917,-1.16232 z m -20.97912,-2.97166 c -0.10315,-0.10315 -0.18754,-1.23099 -0.18754,-2.5063 0,-2.20319 -0.0297,-2.32296 -0.59532,-2.4033 -0.43606,-0.0619 -0.59531,-0.26149 -0.59531,-0.746 0,-0.65044 0.0353,-0.66146 2.11667,-0.66146 2.08139,0 2.11666,0.011 2.11666,0.66146 0,0.52269 -0.1506,0.67882 -0.71789,0.74424 -0.71633,0.0826 -0.71806,0.0881 -0.79375,2.51354 -0.0692,2.2161 -0.12355,2.43759 -0.61591,2.50807 -0.29703,0.0425 -0.62445,-0.007 -0.72761,-0.11025 z m 0.87079,-2.7518 v -2.38786 l 0.79375,-0.15875 c 1.37751,-0.27551 0.86179,-0.62178 -0.92604,-0.62178 -1.63,0 -2.40109,0.39561 -1.12448,0.57692 0.56185,0.0798 0.59959,0.22209 0.67138,2.53194 0.0984,3.16438 0.58539,3.21391 0.58539,0.0595 z m 2.55455,2.43318 c -0.64644,-0.7143 -0.61426,-3.77243 0.046,-4.36993 0.56232,-0.5089 2.17608,-0.58254 2.63823,-0.12039 0.49264,0.49265 0.41608,4.04404 -0.0983,4.5584 -0.5688,0.5688 -2.04473,0.52994 -2.58593,-0.0681 z m 2.31406,-0.54556 c 0.33514,-0.37032 0.43169,-0.86625 0.37174,-1.90954 -0.0696,-1.21213 -0.18025,-1.46482 -0.7905,-1.80609 -0.6477,-0.36221 -0.75721,-0.35363 -1.25677,0.0985 -0.43016,0.38929 -0.54725,0.81482 -0.54725,1.98883 0,0.82146 0.14288,1.63645 0.3175,1.81107 0.47253,0.47253 1.39209,0.38434 1.90528,-0.18274 z m -1.51722,-0.20531 c -0.097,-0.097 -0.17639,-0.81139 -0.17639,-1.5875 0,-1.31197 0.0445,-1.41111 0.63315,-1.41111 0.73071,0 0.95435,0.43244 0.95435,1.84541 0,0.67545 -0.13819,1.06142 -0.41852,1.16899 -0.53799,0.20645 -0.77411,0.20269 -0.99259,-0.0158 z m 0.88194,-1.41111 c 0,-1.04711 -0.40353,-1.42901 -0.69829,-0.66087 -0.19966,0.5203 0.10631,1.7192 0.43875,1.7192 0.14275,0 0.25954,-0.47625 0.25954,-1.05833 z m 1.76389,2.46944 c -0.097,-0.097 -0.17639,-1.29554 -0.17639,-2.66341 v -2.48701 l 0.72761,0.0837 c 0.71678,0.0825 0.72719,0.11028 0.70011,1.86965 l -0.0275,1.78594 h 0.99763 c 0.55054,0 1.05744,0.14822 1.13108,0.33073 0.0734,0.1819 0.14285,-0.45449 0.15434,-1.4142 0.016,-1.3361 0.13425,-1.84753 0.50474,-2.18281 0.69082,-0.62518 2.30267,-0.57193 2.7673,0.0914 l 0.37074,0.52931 0.47902,-0.52931 c 0.31848,-0.35191 0.81495,-0.52931 1.48134,-0.52931 0.70248,0 1.11323,0.15835 1.37307,0.52931 l 0.37074,0.52931 0.47902,-0.52931 c 0.54808,-0.60562 2.28118,-0.73204 2.72244,-0.19858 0.15047,0.1819 0.3258,0.68792 0.38963,1.12448 0.0933,0.63787 0.12385,0.57292 0.15571,-0.33073 l 0.0396,-1.12448 h 1.42281 c 0.83343,0 1.53926,0.14033 1.70395,0.33875 0.15462,0.18632 0.32577,0.98999 0.38032,1.78594 0.0979,1.42839 0.0998,1.42399 0.14814,-0.33875 l 0.0489,-1.78594 h 1.42281 c 1.71908,0 2.14652,0.39995 2.07937,1.94563 -0.067,1.54103 0.11678,1.99587 0.74036,1.8328 0.41713,-0.10909 0.51996,-0.36533 0.51996,-1.29574 0,-0.98338 -0.0805,-1.15977 -0.52917,-1.15977 -0.39058,0 -0.52916,-0.17639 -0.52916,-0.67355 0,-0.66278 0.0285,-0.67229 1.7832,-0.59531 1.47853,0.0649 1.7989,0.16055 1.8751,0.56001 0.0584,0.30629 -0.10033,0.53204 -0.43583,0.61977 -0.96018,0.2511 -0.96242,2.31223 -0.003,2.61679 0.34235,0.10866 0.488,0.35581 0.43381,0.73616 -0.0714,0.50124 -0.27393,0.58256 -1.62524,0.6526 -0.84903,0.044 -1.69125,-0.0425 -1.87161,-0.19214 -0.22614,-0.18767 -0.41901,-0.18107 -0.62135,0.0213 -0.49843,0.49843 -1.12274,0.0386 -1.12274,-0.82687 0,-1.07538 -0.47385,-1.02801 -0.57855,0.0578 -0.0636,0.65963 -0.22183,0.87962 -0.67941,0.9446 -0.36157,0.0513 -0.66045,-0.082 -0.75889,-0.3385 -0.14681,-0.38257 -0.19384,-0.38023 -0.48972,0.0244 -0.4924,0.67339 -1.1976,0.26804 -1.1976,-0.68837 0,-1.06126 -0.45615,-1.02545 -0.73686,0.0578 -0.29858,1.15228 -1.17106,1.19315 -1.41205,0.0661 -0.0933,-0.43657 -0.18382,-0.5939 -0.20103,-0.34963 -0.0824,1.16948 -1.73929,1.66477 -2.88486,0.86238 -0.5349,-0.37465 -0.60487,-0.37465 -0.74864,0 -0.11289,0.29419 -0.51983,0.41329 -1.41219,0.41329 -1.24667,0 -1.85364,-0.36395 -2.20624,-1.32292 -0.12386,-0.33685 -0.14909,-0.33305 -0.16682,0.0251 -0.0553,1.11781 -1.7652,1.66143 -2.84559,0.9047 -0.49642,-0.3477 -0.5786,-0.3477 -0.71202,0 -0.1097,0.28588 -0.574,0.39308 -1.70255,0.39308 -0.85343,0 -1.63108,-0.0794 -1.72809,-0.17639 z m 2.99861,-0.60139 c 0,-0.13673 -0.44648,-0.28556 -0.99219,-0.33072 l -0.99218,-0.0821 -0.0782,-1.78594 c -0.10976,-2.50556 -0.58323,-2.23707 -0.58323,0.33073 v 2.11666 h 1.32292 c 0.7276,0 1.32292,-0.11187 1.32292,-0.24861 z m 3.38667,-0.0689 c 0.43531,-0.43531 0.40787,-3.0695 -0.0366,-3.51397 -0.51252,-0.51252 -1.34969,-0.58973 -1.85422,-0.17101 -0.31296,0.25974 -0.43752,0.79078 -0.43752,1.8653 0,1.66106 0.29472,2.13718 1.32292,2.13718 0.37835,0 0.83079,-0.14287 1.00542,-0.3175 z m -1.68475,-0.55971 c -0.0813,-0.21184 -0.11053,-0.9048 -0.065,-1.53991 0.0741,-1.03325 0.15243,-1.15475 0.74429,-1.15475 0.62538,0 0.66146,0.0794 0.66146,1.45521 0,1.30852 -0.0601,1.46374 -0.59649,1.53991 -0.3416,0.0485 -0.65966,-0.0799 -0.7443,-0.30046 z m 0.94392,-1.23945 c 0,-0.58209 -0.10616,-1.05834 -0.2359,-1.05834 -0.31981,0 -0.59578,1.18082 -0.39702,1.69877 0.29545,0.76992 0.63292,0.42844 0.63292,-0.64043 z m 4.73081,0.66146 c -0.0614,-1.51722 -0.25704,-1.73345 -0.94553,-1.04496 -0.37061,0.37061 -0.36464,0.44361 0.0619,0.75549 0.64506,0.47168 0.31794,1.28017 -0.47255,1.16792 -0.52879,-0.0751 -0.60551,-0.2574 -0.67585,-1.60606 -0.0769,-1.47507 -0.0588,-1.52135 0.59532,-1.52135 0.37106,0 0.67466,0.11906 0.67466,0.26458 0,0.14552 0.18851,0.26458 0.41892,0.26458 0.59743,0 0.32162,-0.59294 -0.4882,-1.04955 -0.6231,-0.35133 -0.74016,-0.34119 -1.23556,0.10715 -0.43016,0.38929 -0.54725,0.81482 -0.54725,1.98883 0,1.76229 0.28463,2.12857 1.65402,2.12857 h 1.01901 z m 3.3128,0.95496 c 0.33514,-0.37032 0.43168,-0.86625 0.37174,-1.90954 -0.07,-1.21875 -0.17861,-1.46391 -0.803,-1.8131 -0.67094,-0.37523 -0.76089,-0.36492 -1.27158,0.14576 -0.63483,0.63484 -0.79606,3.02874 -0.24842,3.68861 0.44839,0.54027 1.41109,0.48515 1.95126,-0.11173 z m -1.51723,-0.20531 c -0.097,-0.097 -0.17638,-0.81139 -0.17638,-1.5875 0,-1.31197 0.0445,-1.41111 0.63315,-1.41111 0.70881,0 0.95435,0.43442 0.95435,1.68851 0,1.14276 -0.81853,1.90269 -1.41112,1.3101 z m 0.88195,-1.43316 c 0,-0.74601 -0.10236,-1.04667 -0.33073,-0.97147 -0.62521,0.2059 -0.57317,2.05185 0.0578,2.05185 0.15009,0 0.27289,-0.48617 0.27289,-1.08038 z m 2.64583,1.1951 c 0,-0.87331 0.0542,-0.93738 0.7276,-0.8599 0.60628,0.0698 0.74143,0.22711 0.81052,0.94362 0.16309,1.69158 0.56588,0.82263 0.4792,-1.0338 -0.0975,-2.08731 -0.51455,-2.69402 -1.7525,-2.54929 -0.63894,0.0747 -0.66434,0.15243 -0.73854,2.26017 -0.0488,1.38462 0.0238,2.18281 0.19843,2.18281 0.15141,0 0.27529,-0.42462 0.27529,-0.94361 z m 0,-2.09909 c 0,-0.52128 0.13418,-0.66146 0.63315,-0.66146 0.7157,0 1.06335,0.57891 0.61617,1.02609 -0.55173,0.55173 -1.24932,0.34813 -1.24932,-0.36463 z m 3.70416,2.09909 c 0,-0.87331 0.0542,-0.93738 0.72761,-0.8599 0.60628,0.0698 0.74143,0.22711 0.81051,0.94362 0.0456,0.47294 0.18673,0.85989 0.31363,0.85989 0.32023,0 0.19284,-3.6175 -0.13908,-3.94942 -0.14833,-0.14832 -0.68365,-0.30264 -1.18961,-0.34294 l -0.91993,-0.0733 -0.0768,2.18281 c -0.0487,1.38462 0.0238,2.18281 0.19844,2.18281 0.15141,0 0.27528,-0.42462 0.27528,-0.94361 z m 0.17639,-1.61403 c -0.097,-0.097 -0.17639,-0.39466 -0.17639,-0.66145 0,-0.53637 1.15777,-0.70176 1.46237,-0.2089 0.35207,0.56965 -0.80415,1.35218 -1.28598,0.87035 z m 5.64445,2.29306 c 0,-0.14552 -0.23813,-0.26458 -0.52917,-0.26458 -0.4692,0 -0.52917,-0.17639 -0.52917,-1.55664 0,-1.38557 0.0654,-1.57606 0.59532,-1.7333 l 0.59531,-0.17666 -0.64543,-0.26109 c -0.70677,-0.2859 -2.1327,-0.0792 -2.1327,0.30913 0,0.13395 0.23813,0.24356 0.52917,0.24356 0.4661,0 0.52917,0.17639 0.52917,1.47998 0,1.25746 -0.0796,1.50078 -0.52917,1.61835 -0.98905,0.25865 -0.53417,0.60583 0.79375,0.60583 0.7276,0 1.32292,-0.11906 1.32292,-0.26458 z m -16.19529,-1.16394 c -0.18764,-0.2036 -0.38285,-0.33059 -0.43381,-0.28218 -0.15693,0.14908 0.24081,0.65237 0.51556,0.65237 0.14268,0 0.10588,-0.16658 -0.0818,-0.37019 z m -1.87423,-1.54804 c -0.0631,-0.32742 -0.11467,-0.0595 -0.11467,0.59531 0,0.65485 0.0516,0.92274 0.11467,0.59532 0.0631,-0.32742 0.0631,-0.86321 0,-1.19063 z m 7.39683,0.79375 c -0.0734,-0.1819 -0.13345,-0.0331 -0.13345,0.33073 0,0.3638 0.0601,0.51263 0.13345,0.33073 0.0734,-0.1819 0.0734,-0.47956 0,-0.66146 z m -3.69226,-0.79066 c -0.0633,-0.32912 -0.11747,-0.12215 -0.12041,0.45993 -0.003,0.58209 0.0488,0.85137 0.11507,0.5984 0.0662,-0.25296 0.0686,-0.72921 0.005,-1.05833 z m -1.96246,0.32728 c 0.0762,-0.29125 0.0305,-0.46281 -0.10143,-0.38126 -0.13195,0.0815 -0.23991,0.31984 -0.23991,0.52953 0,0.54762 0.17979,0.46953 0.34134,-0.14827 z m 86.574283,1.92519 c -0.29104,-0.0718 -1.19032,-0.74255 -1.99839,-1.49067 -0.80807,-0.74811 -2.09451,-1.83645 -2.85876,-2.41853 -2.43299,-1.85307 -3.37034,-3.85069 -3.2967,-7.0257 l 0.0279,-1.20487 -2.9485,0.98425 c -4.90792,1.63832 -10.66189,2.66953 -19.08809,3.4209 -1.74625,0.15571 -9.57461,0.35136 -17.39635,0.43476 -12.756133,0.13602 -14.221363,0.10924 -14.221363,-0.25997 0,-0.22639 0.20836,-0.46607 0.46302,-0.53261 0.8644,-0.22589 -7.71176,-0.17453 -13.6501,0.0817 -7.01006,0.30254 -10.39748,0.61682 -15.91708,1.47679 -3.12256,0.4865 -5.15843,0.63911 -8.53281,0.63964 l -4.43177,6.8e-4 v -0.61601 c 0,-0.52113 0.20135,-0.6625 1.30714,-0.91775 3.45987,-0.79863 15.49397,-2.22677 27.40015,-3.25169 6.02079,-0.51829 7.67096,-0.55408 18.38212,-0.39871 7.611613,0.11042 11.863253,0.26837 12.038543,0.44725 0.18606,0.18987 0.0756,0.43626 -0.35253,0.78606 -0.62322,0.50925 -0.6223,0.50943 1.85208,0.36718 8.22333,-0.47275 14.02104,-1.13956 20.86416,-2.39966 6.38858,-1.1764 14.04371,-3.26942 17.42928,-4.76541 1.57522,-0.69605 2.41595,-0.7998 2.41161,-0.29761 -0.002,0.1819 -0.18017,0.9152 -0.39688,1.62955 -0.47077,1.55186 -0.51414,4.58882 -0.0859,6.01803 0.16944,0.56553 0.72684,1.41278 1.23867,1.88278 3.5901,3.29666 6.13189,5.92328 6.06755,6.27002 -0.17123,0.92276 -2.59025,1.56278 -4.307,1.13955 z m 3.49161,-1.22719 c 0.0435,-0.0436 -1.07172,-1.14109 -2.4784,-2.43894 -1.40668,-1.29786 -2.95119,-2.75193 -3.43225,-3.23127 -1.5524,-1.54685 -2.08661,-4.78281 -1.32424,-8.02155 l 0.3495,-1.48474 -1.6104,0.63636 c -9.29385,3.67253 -27.82869,6.96333 -39.21966,6.96333 -2.21718,0 -2.7397,-0.0732 -2.7397,-0.38372 0,-0.21105 0.19056,-0.49037 0.42347,-0.62072 0.75875,-0.42461 -2.82063,-0.57922 -13.455053,-0.58117 -8.12168,-0.002 -11.53224,0.10982 -16.40417,0.5354 -11.3225,0.98905 -24.86941,2.61511 -25.2899,3.03559 -0.31836,0.31837 7.67991,0.0982 9.74649,-0.26826 6.29611,-1.11655 12.89263,-1.58761 26.27253,-1.87615 7.1215,-0.15357 8.40108,-0.12482 8.33438,0.18724 -0.0433,0.20277 -0.19785,0.46407 -0.34337,0.58067 -0.50759,0.40672 25.328883,0.0175 29.828533,-0.44932 7.34633,-0.7622 13.56374,-2.04632 18.00094,-3.71784 2.61964,-0.98683 2.6203,-0.98656 2.41512,1.01618 -0.27423,2.67661 0.34942,4.26666 2.41993,6.16987 5.13665,4.72158 5.7684,5.09089 7.51459,4.39294 0.50185,-0.20059 0.94809,-0.40035 0.99166,-0.4439 z M 77.507987,174.2924 c -0.14032,-0.18675 -0.59407,-1.17298 -1.00832,-2.19163 -4.15141,-10.20833 -6.84762,-14.95857 -10.7785,-18.98982 -2.2303,-2.28723 -4.23037,-3.64158 -6.51382,-4.41082 -1.83086,-0.61677 -2.40728,-0.65653 -3.82203,-0.26366 -2.18311,0.60626 -3.82264,2.80954 -4.83866,6.50244 -0.34589,1.25718 -0.69861,2.35551 -0.78384,2.44073 -0.37015,0.37016 -1.63039,-0.73451 -2.2023,-1.93044 -0.81488,-1.70401 -1.09757,-4.87068 -0.80256,-8.99035 0.3931,-5.48943 1.47409,-8.7131 3.75482,-11.19745 2.77502,-3.02277 6.80845,-3.26338 11.54194,-0.68853 7.30742,3.97498 13.37442,13.00717 16.21432,24.13894 0.81247,3.18471 0.85055,3.56105 0.84596,8.36188 -0.004,3.70051 -0.10727,5.33596 -0.39313,6.1976 -0.41378,1.2472 -0.79993,1.57202 -1.21388,1.02111 z m 0.99728,-2.39006 c 1.09717,-6.18612 -0.37037,-14.42548 -3.89618,-21.87484 -5.27475,-11.1445 -14.37053,-18.30005 -20.80979,-16.3708 -1.35491,0.40594 -3.58667,2.44223 -4.48437,4.0916 -1.99815,3.67127 -2.886,11.91337 -1.76353,16.37113 0.1656,0.65767 0.66323,1.57923 1.10584,2.04792 l 0.80474,0.85217 0.44366,-1.73839 c 0.9638,-3.77649 2.77132,-6.51271 4.72904,-7.15882 3.37638,-1.1143 7.5268,0.56747 11.54518,4.67817 3.46086,3.54039 6.57995,8.87822 9.92506,16.98519 0.91569,2.21919 1.75382,4.0349 1.86251,4.0349 0.10869,0 0.35072,-0.86321 0.53784,-1.91823 z m 23.525023,-3.24115 c -0.0571,-0.78564 -0.0598,-0.78699 -0.26951,-0.13229 -0.3231,1.00887 -0.31027,-4.58497 0.0152,-6.61458 0.4266,-2.66051 2.33322,-5.07324 4.99429,-6.32002 1.29489,-0.60669 1.7765,-0.68475 3.98637,-0.6461 4.07506,0.0713 8.14904,1.42343 12.79856,4.24786 3.69629,2.24538 11.38642,9.00839 11.09799,9.76003 -0.12845,0.33472 -0.22978,0.33194 -0.76861,-0.0211 -0.34136,-0.22367 -1.19018,-0.72095 -1.88627,-1.10508 -0.69608,-0.38413 -2.21811,-1.25264 -3.38228,-1.93003 -3.59644,-2.09265 -6.83629,-3.48639 -10.58903,-4.55526 -1.74632,-0.4974 -2.77368,-0.60295 -5.94743,-0.61109 -3.5261,-0.009 -3.93277,0.0406 -5.02708,0.61315 -2.43179,1.27241 -4.4629,3.80629 -4.52922,5.65033 -0.0172,0.47874 -0.1222,1.22763 -0.23328,1.66419 l -0.20198,0.79375 z m 30.43634,-1.64685 c -7.8319,-7.14802 -12.849,-10.17994 -18.75673,-11.33501 -3.64654,-0.71296 -6.00175,-0.35413 -8.06333,1.2285 -1.37713,1.05718 -2.88594,2.90701 -3.16619,3.88179 -0.37414,1.30137 -0.64049,4.41525 -0.43568,5.09345 l 0.19976,0.66145 0.0228,-0.6879 c 0.0464,-1.40286 2.5882,-4.11126 4.77179,-5.08452 1.74331,-0.77702 6.02443,-0.92188 9.1532,-0.30972 2.69288,0.52687 7.16153,2.04709 9.51556,3.23716 2.22832,1.12651 7.59258,4.2677 8.05816,4.71867 0.21308,0.2064 0.44652,0.37527 0.51874,0.37527 0.0722,0 -0.74588,-0.80061 -1.81803,-1.77914 z m -0.6027,-14.09586 c -0.24095,-2.26858 0.0234,-3.47706 1.27195,-5.81403 1.8475,-3.45814 4.52365,-5.56305 7.07277,-5.56305 1.92722,0 2.8448,1.44431 2.87377,4.52347 0.0189,2.01386 -0.78808,4.97104 -1.11072,4.06999 -0.18614,-0.51984 -0.1884,-0.5198 -0.30884,0.006 -0.0667,0.29104 -0.11254,-0.39038 -0.10181,-1.51426 0.0186,-1.95037 -0.0184,-2.08148 -0.81376,-2.87872 -0.74638,-0.74818 -0.93887,-0.81547 -1.84593,-0.6453 -0.78435,0.14714 -1.43234,0.61723 -2.87407,2.08496 -1.89743,1.93167 -2.10846,2.32802 -3.05166,5.73144 -0.46369,1.67319 -0.47723,1.69044 -0.49989,0.63674 -0.0273,-1.27021 0.76821,-3.73796 1.59458,-4.94645 1.62794,-2.38069 3.9394,-4.15695 5.4095,-4.15695 0.88511,0 2.49606,1.55895 2.50168,2.42093 0.002,0.34198 0.11098,0.79071 0.24167,0.99719 0.40752,0.64384 0.64599,-1.95565 0.304,-3.3138 -0.49626,-1.97084 -0.9618,-2.48557 -2.248,-2.48557 -2.71434,0 -5.87113,2.81562 -7.41605,6.61458 -0.26804,0.65912 -0.55837,2.25364 -0.65036,3.57187 l -0.16617,2.38125 z"
           style="fill:#000000;stroke-width:0.26458332" />
      </g>
    </clipPath>
    <linearGradient
       osb:paint="solid"
       id="linearGradient823"
       x1="38.227768"
       y1="163.06978"
       x2="146.38495"
       y2="163.06978"
       gradientUnits="userSpaceOnUse">
      <stop
         style="stop-color:#000000;stop-opacity:1;"
         offset="0"
         id="stop13" />
    </linearGradient>
    <linearGradient
       inkscape:collect="always"
       id="linearGradient905"
       x1="400.23511"
       y1="669.64105"
       x2="400.23511"
       y2="781.52191"
       gradientUnits="userSpaceOnUse">
      <stop
         style="stop-color:#008000;stop-opacity:1;"
         offset="0"
         id="stop16" />
      <stop
         style="stop-color:#ffffff;stop-opacity:1"
         offset="1"
         id="stop18" />
    </linearGradient>
    <linearGradient
       inkscape:collect="always"
       id="linearGradient975"
       gradientUnits="userSpaceOnUse"
       x1="363.57727"
       y1="716.10864"
       x2="362.55737"
       y2="579.44843">
      <stop
         id="stop21"
         offset="0"
         style="stop-color:#0c50d9;stop-opacity:1;" />
      <stop
         id="stop23"
         offset="1"
         style="stop-color:#77d2ed;stop-opacity:1" />
    </linearGradient>
    <clipPath
       clipPathUnits="userSpaceOnUse"
       id="clipPath852">
      <rect
         style="color:#000000;clip-rule:nonzero;display:inline;overflow:visible;visibility:visible;opacity:0.98000004;isolation:auto;mix-blend-mode:normal;color-interpolation:sRGB;color-interpolation-filters:linearRGB;solid-color:#000000;solid-opacity:1;fill:none;fill-opacity:1;fill-rule:nonzero;stroke:#000000;stroke-width:0.31652313;stroke-linecap:butt;stroke-linejoin:miter;stroke-miterlimit:4;stroke-dasharray:none;stroke-dashoffset:0;stroke-opacity:1;color-rendering:auto;image-rendering:auto;shape-rendering:auto;text-rendering:auto;enable-background:accumulate"
         id="rect854"
         width="82.478622"
         height="84.953796"
         x="75.936287"
         y="122.90995" />
    </clipPath>
    <clipPath
       clipPathUnits="userSpaceOnUse"
       id="clipPath853">
      <rect
         style="fill:#b3b3b3;stroke:#000000;stroke-width:0.07778528;stroke-opacity:1"
         id="rect855"
         width="82.430489"
         height="51.6717"
         x="75.915642"
         y="138.47026" />
    </clipPath>
  </defs>
  <sodipodi:namedview
     id="base"
     pagecolor="#ffffff"
     bordercolor="#666666"
     borderopacity="1.0"
     inkscape:pageopacity="0.0"
     inkscape:pageshadow="2"
     inkscape:zoom="1"
     inkscape:cx="-81.79921"
     inkscape:cy="68.734607"
     inkscape:document-units="mm"
     inkscape:current-layer="layer1"
     showgrid="false"
     inkscape:window-width="1920"
     inkscape:window-height="1015"
     inkscape:window-x="0"
     inkscape:window-y="0"
     inkscape:window-maximized="1"
     fit-margin-top="0"
     fit-margin-left="0"
     fit-margin-right="0"
     fit-margin-bottom="0" />
  <metadata
     id="metadata5">
    <rdf:RDF>
      <cc:Work
         rdf:about="">
        <dc:format>image/svg+xml</dc:format>
        <dc:type
           rdf:resource="http://purl.org/dc/dcmitype/StillImage" />
        <dc:title></dc:title>
      </cc:Work>
    </rdf:RDF>
  </metadata>
  <g
     inkscape:label="Capa 1"
     inkscape:groupmode="layer"
     id="layer1"
     transform="translate(-53.839179,-119.01304)">
    <g
       id="g850"
       clip-path="url(#clipPath853)"
       transform="translate(-22.076463,-19.457222)">
      <g
         id="g826">
        <path
           inkscape:connector-curvature="0"
           id="path4544"
           d="m 142.21708,192.23388 c -0.29104,-0.0718 -1.33064,-1.4909 -2.13871,-2.23902 -0.80807,-0.74811 -2.16197,-1.93764 -2.92622,-2.51972 -2.43299,-1.85307 -3.30288,-3.7495 -3.22924,-6.92451 l 0.0279,-1.20487 -2.9485,0.98425 c -4.90792,1.63832 -10.66189,2.66953 -19.08809,3.4209 -1.74625,0.15571 -9.57461,0.35136 -17.396348,0.43476 -12.756133,0.13602 -14.221363,0.10924 -14.221363,-0.25997 0,-0.22639 0.20836,-0.46607 0.46302,-0.53261 0.8644,-0.22589 -7.71176,-0.17453 -13.6501,0.0817 -7.01006,0.30254 -10.39748,0.61682 -15.91708,1.47679 -3.12256,0.4865 -5.15843,0.63911 -8.53281,0.63964 l -4.43177,6.8e-4 v -0.61601 c 0,-0.52113 0.20135,-0.6625 1.30714,-0.91775 3.45987,-0.79863 15.49397,-2.22677 27.40015,-3.25169 6.02079,-0.51829 7.67096,-0.55408 18.38212,-0.39871 2.465965,0.0358 4.579269,0.0765 6.315554,0.12138 3.62305,0.0936 5.604488,0.20494 5.722989,0.32587 0.18606,0.18987 0.0756,0.43626 -0.35253,0.78606 -0.62322,0.50925 -0.6223,0.50943 1.85208,0.36718 8.223328,-0.47275 14.021038,-1.13956 20.864158,-2.39966 6.38858,-1.1764 14.04371,-3.26942 17.42928,-4.76541 1.57522,-0.69605 2.41595,-0.7998 2.41161,-0.29761 -0.002,0.1819 -0.18017,0.9152 -0.39688,1.62955 -0.47077,1.55186 -0.51414,4.58882 -0.0859,6.01803 0.16944,0.56553 0.72684,1.41278 1.23867,1.88278 3.5901,3.29666 18.76038,17.61632 18.69604,17.96306 -0.17123,0.92276 1.19829,1.65633 -0.51846,1.2331 l -2.97221,0.98245 z m 3.35129,-1.97554 c 0.0435,-0.0436 -1.07172,-1.14109 -2.4784,-2.43894 -1.40668,-1.29786 -2.95119,-2.75193 -3.43225,-3.23127 -1.5524,-1.54685 -2.08661,-4.78281 -1.32424,-8.02155 l 0.3495,-1.48474 -1.6104,0.63636 c -9.29385,3.67253 -27.82869,6.96333 -39.219658,6.96333 -2.21718,0 -2.7397,-0.0732 -2.7397,-0.38372 0,-0.21105 0.19056,-0.49037 0.42347,-0.62072 0.75875,-0.42461 -2.82063,-0.57922 -13.455053,-0.58117 -8.12168,-0.002 -11.53224,0.10982 -16.40417,0.5354 -11.3225,0.98905 -24.86941,2.61511 -25.2899,3.03559 -0.31836,0.31837 7.67991,0.0982 9.74649,-0.26826 6.29611,-1.11655 12.89263,-1.58761 26.27253,-1.87615 7.1215,-0.15357 8.40108,-0.12482 8.33438,0.18724 -0.0433,0.20277 -0.19785,0.46407 -0.34337,0.58067 -0.50759,0.40672 25.328881,0.0175 29.828531,-0.44932 7.34633,-0.7622 13.56374,-2.04632 18.00094,-3.71784 2.61964,-0.98683 2.6203,-0.98656 2.41512,1.01618 -0.27423,2.67661 0.34942,4.26666 2.41993,6.16987 5.13665,4.72158 5.7684,5.09089 7.51459,4.39294 0.50185,-0.20059 0.94809,-0.40035 0.99166,-0.4439 z M 70.066679,176.00962 c -0.14032,-0.18675 -0.59407,-1.17298 -1.00832,-2.19163 -4.15141,-10.20833 -6.84762,-14.95857 -10.7785,-18.98982 -2.2303,-2.28723 -4.23037,-3.64158 -6.51382,-4.41082 -1.83086,-0.61677 -2.40728,-0.65653 -3.82203,-0.26366 -2.18311,0.60626 -3.82264,2.80954 -4.83866,6.50244 -0.34589,1.25718 -0.69861,2.35551 -0.78384,2.44073 -0.37015,0.37016 -1.63039,-0.73451 -2.2023,-1.93044 -0.81488,-1.70401 -1.09757,-4.87068 -0.80256,-8.99035 0.3931,-5.48943 1.47409,-8.7131 3.75482,-11.19745 2.77502,-3.02277 6.808451,-3.26338 11.54194,-0.68853 6.689013,3.63859 12.338675,11.51465 15.425191,21.35969 0.285352,0.91018 0.548797,1.8372 0.789129,2.77925 0.435205,1.70591 0.559861,2.60603 0.713982,3.81199 0.133601,1.04541 0.324912,2.32066 0.322781,4.54989 -0.004,3.70051 -0.298073,5.33596 -0.583933,6.1976 -0.41378,1.2472 -0.79993,1.57202 -1.21388,1.02111 z m 0.99728,-2.39006 c 1.09717,-6.18612 -0.37037,-14.42548 -3.89618,-21.87484 -5.27475,-11.1445 -14.37053,-18.30005 -20.80979,-16.3708 -1.35491,0.40594 -3.58667,2.44223 -4.48437,4.0916 -1.99815,3.67127 -2.886,11.91337 -1.76353,16.37113 0.1656,0.65767 0.66323,1.57923 1.10584,2.04792 l 0.80474,0.85217 0.44366,-1.73839 c 0.9638,-3.77649 2.77132,-6.51271 4.72904,-7.15882 3.37638,-1.1143 7.5268,0.56747 11.54518,4.67817 3.46086,3.54039 6.57995,8.87822 9.92506,16.98519 0.91569,2.21919 1.75382,4.0349 1.86251,4.0349 0.10869,0 0.35072,-0.86321 0.53784,-1.91823 z m 23.525023,-3.24115 c -0.0571,-0.78564 0.26743,0.13906 0.05772,0.79376 -0.3231,1.00887 -0.6375,-5.51102 -0.31203,-7.54063 0.4266,-2.66051 2.33322,-5.07324 4.99429,-6.32002 1.294888,-0.60669 1.776498,-0.68475 3.986368,-0.6461 4.07506,0.0713 8.14904,1.42343 12.79856,4.24786 3.69629,2.24538 11.38642,9.00839 11.09799,9.76003 -0.12845,0.33472 -0.22978,0.33194 -0.76861,-0.0211 -0.34136,-0.22367 -1.19018,-0.72095 -1.88627,-1.10508 -0.69608,-0.38413 -2.21811,-1.25264 -3.38228,-1.93003 -3.59644,-2.09265 -6.83629,-3.48639 -10.58903,-4.55526 -1.74632,-0.4974 -2.77368,-0.60295 -5.94743,-0.61109 -3.5261,-0.009 -3.93277,0.0406 -5.027078,0.61315 -2.43179,1.27241 -4.4629,3.80629 -4.52922,5.65033 -0.0172,0.47874 -0.1222,1.22763 -0.23328,1.66419 l -0.20198,0.79375 z m 30.436338,-1.64685 c -7.8319,-7.14802 -12.849,-10.17994 -18.75673,-11.33501 -3.64654,-0.71296 -6.00175,-0.35413 -8.063328,1.2285 -1.37713,1.05718 -2.88594,2.90701 -3.16619,3.88179 -0.37414,1.30137 -0.64049,4.41525 -0.43568,5.09345 l 0.08051,2.1521 0.142052,-2.17855 c 0.0464,-1.40286 2.5882,-4.11126 4.77179,-5.08452 1.743306,-0.77702 6.024426,-0.92188 9.153196,-0.30972 2.69288,0.52687 7.16153,2.04709 9.51556,3.23716 2.22832,1.12651 7.59258,4.2677 8.05816,4.71867 0.21308,0.2064 0.44652,0.37527 0.51874,0.37527 0.0722,0 -0.74588,-0.80061 -1.81803,-1.77914 z m -0.43405,-13.21889 c -0.24095,-2.26858 -0.14525,-4.35403 1.1033,-6.691 1.8475,-3.45814 4.52365,-5.56305 7.07277,-5.56305 1.92722,0 2.8448,1.44431 2.87377,4.52347 0.0189,2.01386 -0.79404,4.95911 -1.11668,4.05806 -0.18614,-0.51984 0.31191,-0.40425 0.19147,0.12155 -0.0667,0.29104 -0.60689,-0.494 -0.59616,-1.61788 0.0186,-1.95037 -0.0184,-2.08148 -0.81376,-2.87872 -0.74638,-0.74818 -0.93887,-0.81547 -1.84593,-0.6453 -0.78435,0.14714 -1.43234,0.61723 -2.87407,2.08496 -1.89743,1.93167 -2.10846,2.32802 -3.05166,5.73144 -0.46369,1.67319 -0.81113,2.3821 -0.49989,0.63674 -0.0273,-1.27021 0.76821,-3.73796 1.59458,-4.94645 1.62794,-2.38069 3.9394,-4.15695 5.4095,-4.15695 0.88511,0 2.49606,1.55895 2.50168,2.42093 0.002,0.34198 -0.056,2.38868 0.0747,2.59516 0.40752,0.64384 0.81294,-3.55362 0.47095,-4.91177 -0.49626,-1.97084 -0.9618,-2.48557 -2.248,-2.48557 -2.71434,0 -5.87113,2.81562 -7.41605,6.61458 -0.26804,0.65912 -0.55837,2.25364 -0.65036,3.57187 l 0.16846,2.31144 -0.112,-0.15798 -0.1476,-0.29803 z"
           style="fill:url(#linearGradient823);fill-opacity:1;stroke-width:0.26458332"
           sodipodi:nodetypes="cccccccsscccccscscsccsscccccccccccsccsssccsccscccccccccccccccssssssscccccsccccccccsccccsccccccccccccccccccccscccsccccscsccccccccscccscscccc" />
      </g>
      <path
         sodipodi:nodetypes="ssssccccssssssss"
         transform="scale(0.26458333)"
         inkscape:connector-curvature="0"
         id="path866"
         d="m 264.90082,660.21858 c -0.50188,-1.05172 -3.31098,-6.72287 -6.24244,-13.59412 -13.09534,-30.69503 -23.16037,-48.70365 -35.97557,-62.09301 -16.15216,-16.87583 -34.20039,-23.67562 -46.41369,-17.48667 -6.63827,3.36386 -12.93091,14.0168 -16.3891,27.74544 l -1.20483,4.78302 -2.4339,-2.14325 c -4.89405,-5.5115 -6.48669,-12.09048 -6.48026,-26.76897 0.008,-17.29833 3.0622,-33.70935 8.25736,-43.59534 2.21735,-4.21944 10.49265,-12.54601 14.37973,-14.46966 8.65896,-4.28518 21.04982,-2.58517 33.41928,4.47242 20.12347,11.48178 38.53458,34.37168 50.24922,61.09048 6.57449,14.99512 11.00149,31.28138 12.91988,47.61465 0.87593,7.45769 1.24486,19.46365 0.48133,25.60295 -0.65764,5.28785 -2.41198,12.10643 -2.91932,12.10643 -0.20603,0 -1.14581,-2.21265 -1.64769,-3.26437 z"
         style="color:#000000;clip-rule:nonzero;display:inline;overflow:visible;visibility:visible;opacity:0.98000004;isolation:auto;mix-blend-mode:normal;color-interpolation:sRGB;color-interpolation-filters:linearRGB;solid-color:#000000;solid-opacity:1;fill:#fdc189;fill-opacity:1;fill-rule:nonzero;stroke:#000000;stroke-width:0.50992602;stroke-linecap:butt;stroke-linejoin:miter;stroke-miterlimit:4;stroke-dasharray:none;stroke-dashoffset:0;stroke-opacity:1;color-rendering:auto;image-rendering:auto;shape-rendering:auto;text-rendering:auto;enable-background:accumulate" />
      <path
         sodipodi:nodetypes="scccsssssssss"
         transform="scale(0.26458333)"
         inkscape:connector-curvature="0"
         id="path868"
         d="m 454.86575,630.04889 c -18.89328,-10.89694 -40.31736,-17.21533 -58.76051,-17.25228 -10.41347,-0.0209 -15.03806,-0.16342 -21.36616,2.99001 -4.12329,2.05472 -10.52468,8.4405 -12.90321,11.32606 -1.54952,1.87983 -3.44534,14.07814 -4.08346,14.66864 -1.1229,1.03911 -0.24114,-10.80924 -0.24114,-13.1762 0,-5.40855 -0.17648,-10.93399 2.05131,-15.81935 1.39036,-3.04892 4.80835,-7.25098 7.55849,-10.07347 6.13229,-6.2936 12.07568,-8.81912 19.7636,-9.17293 6.87845,-0.31655 15.15341,0.99747 26.20965,4.65518 12.04423,3.98457 24.29093,10.66279 36.21499,19.94363 13.51196,10.51676 32.96257,26.38488 30.00307,25.62879 -1.35189,-0.34537 -19.58966,-10.91676 -24.44663,-13.71808 z"
         style="color:#000000;clip-rule:nonzero;display:inline;overflow:visible;visibility:visible;opacity:0.98000004;isolation:auto;mix-blend-mode:normal;color-interpolation:sRGB;color-interpolation-filters:linearRGB;solid-color:#000000;solid-opacity:1;fill:#fdc189;fill-opacity:1;fill-rule:nonzero;stroke:#000000;stroke-width:1.44228864;stroke-linecap:butt;stroke-linejoin:miter;stroke-miterlimit:4;stroke-dasharray:none;stroke-dashoffset:0;stroke-opacity:1;color-rendering:auto;image-rendering:auto;shape-rendering:auto;text-rendering:auto;enable-background:accumulate" />
      <path
         sodipodi:nodetypes="csscssccscccccssccc"
         transform="scale(0.26458333)"
         inkscape:connector-curvature="0"
         id="path870"
         d="m 471.87153,588.18034 c 0,0 -0.25413,-1.79634 -0.37594,-3.36865 -0.2287,-2.95203 0.11192,-4.24975 0.6259,-7.84187 0.74207,-5.18623 1.30283,-8.05788 3.07271,-11.66579 2.5223,-5.14175 5.60572,-9.22171 9.34194,-12.9863 4.38616,-4.41947 8.84726,-7.13172 13.54667,-8.3792 2.20591,-0.58557 5.86553,-0.57051 7.32514,0.007 1.98905,0.78752 3.3199,2.66395 4.53117,6.45899 1.01017,3.16493 1.37915,4.60143 1.26939,9.86203 -0.14922,7.15163 -1.4055,12.70016 -2.35911,11.74654 -0.15313,-0.15313 -0.37017,-2.08603 -0.43664,-5.89092 l -0.12385,-5.67146 -0.33031,-0.99542 c -1.56037,-2.96631 -5.50046,-6.37487 -8.021,-6.93895 -4.06901,-0.9106 -11.33121,3.85268 -17.05269,10.20053 -2.39062,2.65235 -4.63064,5.56818 -6.06697,8.48339 -2.42617,4.92421 -3.8468,10.76106 -4.24686,15.65766 -0.17223,2.1081 -0.50065,3.65679 -0.52427,2.53309 z"
         style="color:#000000;clip-rule:nonzero;display:inline;overflow:visible;visibility:visible;opacity:0.98000004;isolation:auto;mix-blend-mode:normal;color-interpolation:sRGB;color-interpolation-filters:linearRGB;solid-color:#000000;solid-opacity:1;fill:#fdc189;fill-opacity:1;fill-rule:nonzero;stroke:#000000;stroke-width:0.18028608;stroke-linecap:butt;stroke-linejoin:miter;stroke-miterlimit:4;stroke-dasharray:none;stroke-dashoffset:0;stroke-opacity:1;color-rendering:auto;image-rendering:auto;shape-rendering:auto;text-rendering:auto;enable-background:accumulate" />
      <path
         sodipodi:nodetypes="cccssccccsssssccccssscccsscc"
         transform="scale(0.26458333)"
         inkscape:connector-curvature="0"
         id="path872"
         d="m 509.92284,695.13963 c -1.54036,-3.16848 -1.72466,-4.98366 -1.64142,-12.13488 0.0748,-6.42781 0.9027,-8.26414 0.0698,-8.58374 -0.5741,-0.2203 -4.82731,1.83442 -10.07484,3.63118 -17.15737,5.87471 -39.87111,10.72715 -62.46134,13.13004 -14.54253,1.54687 -48.5723,2.68883 -85.35715,2.6954 -30.52764,0.005 -32.38975,0.87097 -32.02818,-0.51167 0.28223,-1.07927 1.81412,-3.56643 0.28909,-3.94918 -1.09545,-0.27494 -12.24409,-0.28141 -24.77475,-0.0144 -47.32717,1.00856 -80.79112,2.61281 -102.09826,7.57652 -2.51906,0.58684 -5.77384,0.57755 -9.34987,0.99244 -13.32198,1.5456 -31.1024,1.00888 -31.91277,0.1985 -1.334,-1.334 54.14026,-7.49446 103.99158,-11.96572 5.02411,-0.45062 23.53758,-1.73282 43.35249,-1.94505 22.98733,-0.24622 47.51054,0.002 53.48949,0.4157 l 11.45574,0.0629 -3.03506,3.31076 0.0245,2.16343 16.58631,-0.0847 c 17.34949,-0.0886 29.44987,-1.09962 51.56182,-4.30801 34.45489,-4.99931 68.81938,-13.15804 90.40494,-21.46372 l 5.74117,-2.62874 -0.30866,3.06646 c -2.24415,12.84458 -3.13259,18.32731 -0.87437,24.97856 1.72657,5.08548 6.75911,9.02463 18.55622,20.05506 6.04547,5.65258 35.77601,31.72182 31.51904,29.5925 -0.61514,-0.30769 -15.81831,-4.21857 -17.5047,-4.21934 -19.54727,-11.09215 -34.93184,-20.90353 -45.62082,-40.0603 z"
         style="color:#000000;clip-rule:nonzero;display:inline;overflow:visible;visibility:visible;opacity:0.98000004;isolation:auto;mix-blend-mode:normal;color-interpolation:sRGB;color-interpolation-filters:linearRGB;solid-color:#000000;solid-opacity:1;fill:#000000;fill-opacity:1;fill-rule:nonzero;stroke:#000000;stroke-width:0.72114432;stroke-linecap:butt;stroke-linejoin:miter;stroke-miterlimit:4;stroke-dasharray:none;stroke-dashoffset:0;stroke-opacity:1;color-rendering:auto;image-rendering:auto;shape-rendering:auto;text-rendering:auto;enable-background:accumulate" />
      <path
         sodipodi:nodetypes="cccsssscsscssssscssssscscscc"
         transform="scale(0.26458333)"
         inkscape:connector-curvature="0"
         id="path884"
         d="m 144.60009,718.29208 -0.11718,-16.84237 8.9512,-0.12331 c 7.51442,-0.0154 15.3148,0.24687 23.46222,-0.35295 7.3689,-0.54251 15.02989,-1.88864 22.8713,-2.99958 17.59971,-2.49346 26.80629,-3.27196 46.69409,-4.24757 7.82808,-0.38402 17.74119,-0.77307 27.20976,-0.96545 16.4376,-0.33398 31.5355,-0.25676 32.0593,0.16343 0.21014,0.16857 -0.15981,-0.0446 -1.06277,0.61152 -0.80132,0.58224 -1.19081,1.21967 -1.19081,1.49941 0,0.79851 1.49765,0.80899 4.95786,1.18376 2.44345,0.26465 18.9213,0.20822 38.75034,-0.0682 29.35447,-0.40917 65.75682,-1.02135 73.67039,-1.57662 7.51886,-0.52757 15.39867,-1.30606 22.59507,-2.23275 14.11665,-1.81782 27.28594,-4.06386 39.55997,-7.2743 5.01245,-1.31107 9.85173,-2.83834 14.4578,-4.35297 l 8.80215,-2.89444 -0.0676,5.21668 c -0.0346,2.67233 0.0119,5.28885 0.53066,7.69927 0.75402,3.50374 1.99549,6.98122 3.68515,9.61433 0.77059,1.20085 2.59376,3.51913 5.39314,6.0717 1.67562,1.52788 3.88507,2.99654 5.91528,4.75846 3.70408,3.21459 7.95751,6.81783 11.53122,10.13068 2.98929,2.295 32.77454,29.73046 43.99312,37.69557 17.29492,12.27926 17.92716,6.38456 21.7799,9.26602 -2.74495,-0.25467 1.80333,16.0224 -0.62773,17.30898 -149.77925,79.26707 -325.19214,95.44513 -453.75564,0.0454 z"
         style="color:#000000;clip-rule:nonzero;display:inline;overflow:visible;visibility:visible;opacity:0.98000004;isolation:auto;mix-blend-mode:normal;color-interpolation:sRGB;color-interpolation-filters:linearRGB;solid-color:#000000;solid-opacity:1;fill:url(#linearGradient905);fill-opacity:1;fill-rule:nonzero;stroke:none;stroke-width:0.72114432;stroke-linecap:butt;stroke-linejoin:miter;stroke-miterlimit:4;stroke-dasharray:none;stroke-dashoffset:0;stroke-opacity:1;color-rendering:auto;image-rendering:auto;shape-rendering:auto;text-rendering:auto;enable-background:accumulate" />
      <path
         transform="scale(0.26458333)"
         sodipodi:nodetypes="csssccsssssssscccccccccccccsssscccccccccsssssccccssssscsssssscscccsssscssccscscccccsccsscsccc"
         inkscape:connector-curvature="0"
         id="path907"
         d="m 530.43693,695.92783 c -3.42903,-3.50262 -3.81662,-4.96303 -4.33383,-6.01286 -1.71582,-3.48272 -2.08788,-10.02661 -1.44836,-16.61399 0.17488,-1.8013 0.4552,-4.01378 0.9586,-6.22145 0.33191,-1.45562 0.86679,-2.94448 1.15586,-4.18651 0.70377,-3.02383 0.75366,-3.10644 0.59563,-3.51823 -0.2875,-0.74921 -1.19895,-1.11769 -3.28671,-0.55362 -0.63043,0.17033 -1.12725,0.24678 -1.93322,0.52718 -0.75974,0.26432 -1.62912,0.62884 -2.6416,1.03481 -0.78419,0.31443 -2.62109,1.12401 -3.4891,1.46683 -5.59068,2.20801 -11.88282,4.24057 -18.59319,6.26916 -20.12088,6.08266 -44.61996,11.36814 -70.18581,14.85258 -8.58577,1.17017 -18.3179,2.3961 -26.87803,3.17858 -5.96352,0.54512 -14.03051,1.00549 -20.71931,1.40067 -5.69196,0.33629 -10.37727,0.65125 -12.01144,0.65389 l -0.94875,0.0147 -0.60328,-0.0378 -0.48793,-0.0601 v 0 l -0.20494,-0.12217 -0.0601,-0.0756 -0.004,-0.12382 0.0279,-0.10414 0.0999,-0.14222 0.24344,-0.24419 0.65005,-0.59702 c 1.92232,-1.7957 2.19213,-2.97033 0.46235,-3.40448 -0.501,-0.12576 -2.00841,-0.24995 -3.95706,-0.37036 -16.18597,-1.00016 -76.6267,-1.7398 -90.6716,-0.95734 -15.07306,0.83974 -37.39544,3.08936 -59.10081,5.18803 -10.33692,0.99947 -20.53471,2.23249 -29.73243,3.37693 -18.11074,2.25345 -32.34407,4.43317 -36.1274,5.69881 l -1.39914,0.50346 -0.64365,0.42036 -0.34581,0.40329 -0.24276,0.55211 0.11049,-117.35515 V 464.58418 h 203.46049 l 250.58217,-0.0426 c -1.7106,22.05649 3.15241,80.1912 -0.32246,147.07627 -0.26214,5.04573 -0.003,31.33053 0.0106,35.54808 0.0611,18.73159 -0.44889,30.70928 -0.17859,52.51888 0.17754,14.32519 0.24017,28.66247 -0.0482,40.65178 -0.11587,4.81654 0.25283,9.66946 0.21379,13.60917 -0.0246,2.48494 -1.06303,3.96789 0.19902,6.86418 -5.01194,-5.76079 -52.8615,-50.3602 -58.83962,-56.2078 -3.40765,-3.16939 -6.31585,-5.64016 -9.33111,-8.67428 z M 268.39887,664.29318 c 2.42539,-4.32383 3.00476,-9.1032 3.0069,-24.8048 0.002,-16.23237 -0.50117,-20.92402 -3.55629,-33.14519 -3.12909,-12.51711 -7.17079,-23.75008 -12.8249,-35.64386 -17.30581,-36.40389 -46.81096,-62.26194 -71.04358,-62.26194 -7.57699,0 -12.25068,1.52825 -17.76673,5.80953 -6.19431,4.80772 -12.05972,14.60001 -14.58279,24.34592 -5.01201,19.36001 -4.78352,47.8045 0.45582,56.74475 1.65624,2.82617 5.50654,6.41627 6.8813,6.41627 1.27003,0 1.47942,-0.46628 4.12182,-9.17867 3.68897,-12.16306 7.58127,-18.75479 13.23032,-22.40594 5.53933,-3.58024 10.88052,-4.12297 17.87077,-1.81587 8.93361,2.94849 15.14405,6.85188 23.11387,14.52753 16.28266,15.68166 25.01067,30.30627 41.67107,69.8238 2.76896,6.56783 5.42259,12.37036 5.89694,12.89451 1.21627,1.34397 2.25481,0.95923 3.52548,-1.30604 z m 90.7156,-22.57225 c 1.3646,-7.8517 2.06599,-10.12813 4.03412,-13.09325 2.71901,-4.09636 8.75122,-9.53725 13.11761,-11.83172 3.58662,-1.88472 3.94294,-1.96336 10.61543,-2.343 9.39301,-0.53443 23.62684,0.21952 28.83519,1.52736 9.40554,2.36177 20.8475,6.74706 31.34559,12.01364 5.8093,2.91436 25.43106,13.90096 30.1735,16.89473 2.96345,1.87074 4.58315,1.35514 3.34852,-1.06594 -1.77754,-3.48573 -13.29857,-14.34528 -26.11323,-24.61394 -16.73373,-13.40909 -33.50486,-22.0659 -49.79748,-25.70412 -4.51823,-1.00894 -6.70032,-1.17831 -15.21809,-1.18115 l -9.94356,-0.003 -4.33437,2.13014 c -10.27546,5.04991 -17.175,13.92261 -18.84927,24.23986 -0.94996,5.85394 -0.36164,26.65339 0.80741,28.54496 0.56357,0.91188 1.14192,-0.69992 1.97863,-5.51425 z M 475.20135,582.6563 c 3.04819,-10.38971 4.70736,-13.30129 11.35805,-19.93172 5.83912,-5.82133 8.17019,-7.35267 11.81848,-7.76389 1.95525,-0.22038 2.33645,-0.0542 4.55761,1.98692 3.12399,2.87077 3.79449,4.5693 3.84192,9.73245 0.0652,7.09594 2.02453,10.2608 3.72355,6.01451 2.4255,-6.06191 2.94548,-17.79069 1.06219,-23.95897 -2.3765,-7.78368 -9.82574,-9.61885 -19.54539,-4.81514 -8.60246,4.25156 -17.72673,16.3327 -20.51911,27.16866 -1.34268,5.21036 -1.44095,16.02656 -0.16797,18.48824 0.77859,1.50563 0.89421,1.56308 1.38406,0.68776 0.29398,-0.52531 1.41295,-3.94928 2.48661,-7.60882 z"
         style="color:#000000;clip-rule:nonzero;display:inline;overflow:visible;visibility:visible;opacity:0.98000004;isolation:auto;mix-blend-mode:normal;color-interpolation:sRGB;color-interpolation-filters:linearRGB;solid-color:#000000;solid-opacity:1;fill:url(#linearGradient975);fill-opacity:1;fill-rule:nonzero;stroke:none;stroke-width:0.50992602;stroke-linecap:butt;stroke-linejoin:miter;stroke-miterlimit:4;stroke-dasharray:none;stroke-dashoffset:0;stroke-opacity:1;color-rendering:auto;image-rendering:auto;shape-rendering:auto;text-rendering:auto;enable-background:accumulate" />
      <rect
         y="122.90995"
         x="38.271523"
         height="84.953804"
         width="120.14339"
         id="rect837"
         style="color:#000000;clip-rule:nonzero;display:inline;overflow:visible;visibility:visible;opacity:0.98000004;isolation:auto;mix-blend-mode:normal;color-interpolation:sRGB;color-interpolation-filters:linearRGB;solid-color:#000000;solid-opacity:1;fill:none;fill-opacity:1;fill-rule:nonzero;stroke:none;stroke-width:0.242029;stroke-linecap:butt;stroke-linejoin:miter;stroke-miterlimit:4;stroke-dasharray:none;stroke-dashoffset:0;stroke-opacity:1;color-rendering:auto;image-rendering:auto;shape-rendering:auto;text-rendering:auto;enable-background:accumulate" />
    </g>
  </g>
</svg>
