<?xml version="1.0" encoding="UTF-8" standalone="no"?>
<!-- Created with Inkscape (http://www.inkscape.org/) -->

<svg
   xmlns:dc="http://purl.org/dc/elements/1.1/"
   xmlns:cc="http://creativecommons.org/ns#"
   xmlns:rdf="http://www.w3.org/1999/02/22-rdf-syntax-ns#"
   xmlns:svg="http://www.w3.org/2000/svg"
   xmlns="http://www.w3.org/2000/svg"
   xmlns:sodipodi="http://sodipodi.sourceforge.net/DTD/sodipodi-0.dtd"
   xmlns:inkscape="http://www.inkscape.org/namespaces/inkscape"
   width="10mm"
   height="10mm"
   viewBox="0 0 10 10"
   version="1.1"
   id="svg835"
   inkscape:version="0.92.3 (2405546, 2018-03-11)"
   sodipodi:docname="piou.svg">
  <defs
     id="defs829" />
  <sodipodi:namedview
     id="base"
     pagecolor="#ffffff"
     bordercolor="#666666"
     borderopacity="1.0"
     inkscape:pageopacity="0.0"
     inkscape:pageshadow="2"
     inkscape:zoom="5.6"
     inkscape:cx="-6.0536923"
     inkscape:cy="10.924516"
     inkscape:document-units="mm"
     inkscape:current-layer="layer1"
     showgrid="false"
     fit-margin-top="0"
     fit-margin-left="0"
     fit-margin-right="0"
     fit-margin-bottom="0"
     inkscape:window-width="1680"
     inkscape:window-height="987"
     inkscape:window-x="0"
     inkscape:window-y="0"
     inkscape:window-maximized="1" />
  <metadata
     id="metadata832">
    <rdf:RDF>
      <cc:Work
         rdf:about="">
        <dc:format>image/svg+xml</dc:format>
        <dc:type
           rdf:resource="http://purl.org/dc/dcmitype/StillImage" />
        <dc:title></dc:title>
      </cc:Work>
    </rdf:RDF>
  </metadata>
  <g
     inkscape:label="Capa 1"
     inkscape:groupmode="layer"
     id="layer1"
     transform="translate(-55.95753,-72.763095)">
    <g
       style="fill:#285291;fill-opacity:1"
       transform="matrix(0.06284041,0,0,-0.06284041,65.456156,77.018791)"
       id="g34-35-9">
      <path
         inkscape:connector-curvature="0"
         id="path36-62-1"
         style="fill:#285291;fill-opacity:1;fill-rule:nonzero;stroke:none"
         d="m 0,0 c -3.337,25.016 -22.673,49.194 -37.659,50.347 -4.362,2.176 -7.037,2.42 -11.435,2.804 11.042,-7.288 12.871,-23.187 12.109,-35.571 -0.772,-12.472 -5.038,-21.994 -10.863,-31.226 12.658,7.254 22.38,19.486 28.463,32.674 0.766,1.664 4.636,2.315 4.676,-0.109 0.47,-29.236 -13.42,-56.014 -38.984,-71.331 -6.19,-3.708 -12.387,-5.682 -18.386,-6.185 -5.719,-0.908 -17.583,-1.146 -18.045,-6.728 -0.124,-1.494 -4.884,-2.455 -4.736,-0.646 0.408,4.945 6.139,6.951 12.09,8.059 -0.862,0.185 -1.717,0.408 -2.562,0.651 -7.049,1.296 -19.83,3.031 -20.356,-6.115 -0.079,-1.39 -4.786,-1.949 -4.743,-1.268 0.479,8.309 9.437,10.284 18.017,10.218 -8.959,4.647 -16.592,12.81 -21.861,23.29 -0.038,0.072 -0.019,0.136 -0.049,0.208 -0.043,0.077 -0.119,0.125 -0.153,0.207 -2.856,6.969 -7.576,17.16 -6.632,25.553 -7.076,2.093 -14.527,1.921 -21.721,3.41 -1.059,-12.364 -1.899,-28.878 6.164,-35.232 -0.559,-2.149 -1.282,-3.49 0.63,-5.903 1.189,-1.946 2.43,-2.599 4.064,-3.506 -0.971,-17.175 36.748,-32.053 50.66,-32.79 5.896,-0.316 10.3,2.909 15.749,3.14 6.139,0.269 9.36,-2.009 15.743,-1.647 1.515,0.085 13.865,5.922 14.467,6.212 6.679,3.241 9.457,5.298 8.451,14.989 C -4.203,-61.026 1.876,-14.034 0,0 m -106.732,-5.243 v -10e-4 c 1.227,0.512 0.022,0.696 0,10e-4 m 1.579,0.052 c 0.052,-0.088 -0.041,-0.209 -0.185,-0.336 0.185,-0.049 0.323,-0.115 0.336,-0.229 0.045,-0.582 0.049,-1.248 -0.135,-1.809 -0.424,-1.237 -2.21,-1.589 -3.304,-1.814 -0.513,-0.103 -1.541,-0.327 -1.915,0.17 -1.189,1.563 -1.747,3.281 0.255,4.302 1.477,0.759 3.94,1.428 4.948,-0.284 m -37.38,6.748 c 0.072,0.783 0.139,1.547 0.2,2.276 1.748,20.424 6.037,28.594 24.086,34.822 4.934,5.451 9.723,8.129 15.866,11.479 8.471,4.525 27.694,9.435 37.719,0 0.749,2.055 5.119,2.907 8.287,3.482 0,-0.074 -0.028,-0.118 -0.028,-0.196 0.797,-26.697 1.933,-52.748 -14.406,-73.036 -0.524,0.065 -1.048,0.132 -1.555,0.23 0.009,0.134 0.002,0.275 -0.092,0.411 -12.699,18.017 -10.33,49.879 -0.446,68.169 0.741,1.373 -3.447,0.386 -3.792,0.196 -18.037,-9.943 -21.273,-30.713 -18.698,-49.598 -2.119,2.437 -4.499,4.528 -7.619,6.032 -5.892,2.842 -13.207,-0.123 -16.333,-5.365 -7.632,1.426 -15.442,1.132 -23.189,1.098" />
    </g>
  </g>
</svg>
