<?xml version="1.0" encoding="UTF-8" standalone="no"?>
<svg
   xmlns:dc="http://purl.org/dc/elements/1.1/"
   xmlns:cc="http://creativecommons.org/ns#"
   xmlns:rdf="http://www.w3.org/1999/02/22-rdf-syntax-ns#"
   xmlns:svg="http://www.w3.org/2000/svg"
   xmlns="http://www.w3.org/2000/svg"
   xmlns:sodipodi="http://sodipodi.sourceforge.net/DTD/sodipodi-0.dtd"
   xmlns:inkscape="http://www.inkscape.org/namespaces/inkscape"
   height="56"
   width="56"
   id="svg16"
   xml:space="preserve"
   enable-background="new 0 0 78 64"
   viewBox="0 0 55.999999 56"
   y="0px"
   x="0px"
   version="1.1"
   sodipodi:docname="station_poor.svg"
   inkscape:version="0.92.3 (2405546, 2018-03-11)"><sodipodi:namedview
     pagecolor="#ffffff"
     bordercolor="#666666"
     borderopacity="1"
     objecttolerance="10"
     gridtolerance="10"
     guidetolerance="10"
     inkscape:pageopacity="0"
     inkscape:pageshadow="2"
     inkscape:window-width="1920"
     inkscape:window-height="1015"
     id="namedview10"
     showgrid="false"
     inkscape:zoom="4.2142857"
     inkscape:cx="-61.457627"
     inkscape:cy="28"
     inkscape:window-x="0"
     inkscape:window-y="0"
     inkscape:window-maximized="1"
     inkscape:current-layer="g6" /><metadata
     id="metadata22"><rdf:RDF><cc:Work
         rdf:about=""><dc:format>image/svg+xml</dc:format><dc:type
           rdf:resource="http://purl.org/dc/dcmitype/StillImage" /><dc:title /></cc:Work></rdf:RDF></metadata><defs
     id="defs20" /><g
     transform="translate(-2.5609763e-4)"
     id="g6"><path
       id="path4"
       d="m 25.723892,35.0268 c -0.42,0.491 -1.105,1.161 -1.961,1.939 l -1.485034,19.034 h 6.444068 l -1.797034,-22.945 c -0.304,0.682 -0.688,1.353 -1.201,1.972 z m -5.345,-12.187 c 0.869,-1.966 2.834,-3.34 5.121,-3.34 0.798,0 1.556,0.169 2.243,0.471 0.058,-1.065 -0.005,-2.147 -0.35,-3.094 -1.06,-2.908 -9.688,-17.40000018 -11.166,-16.86200018 -1.479,0.537 1.239,17.17600018 2.299,20.08300018 0.367,1.006 1.068,1.927 1.853,2.742 z m 13.049,-0.907 c -1.016,-0.179 -2.119,-0.046 -3.181,0.206 0.538,0.86 0.854,1.873 0.854,2.961 0,1.942 -0.99,3.652 -2.491,4.657 0.981,0.677 2.066,1.258 3.18,1.455 3.053,0.537 19.933,0.321 20.207,-1.227 0.272,-1.546 -15.518,-7.514 -18.569,-8.052 z m -9.042,11.968 c 0.741,-0.882 1.203,-2.051 1.519,-3.222 -0.134,0.01 -0.268,0.021 -0.405,0.021 -2.838,0 -5.177,-2.114 -5.544,-4.852 -1.058,0.506 -2.082,1.147 -2.796,1.998 -1.992,2.37 -10.2460001,17.078 -9.04,18.086 1.204,1.01 14.275,-9.658 16.266,-12.031 z m -2.736,-8.801 c 0,2.126 1.724,3.85 3.85,3.85 2.126,0 3.85,-1.724 3.85,-3.85 0,-2.126 -1.724,-3.85 -3.85,-3.85 -2.126,0 -3.85,1.724 -3.85,3.85 z"
       style="fill:#00ffff;stroke-width:1;stroke-miterlimit:4;stroke-dasharray:none;stroke:#000000;stroke-opacity:1;paint-order:stroke markers fill" /><path
       transform="translate(2.5609763e-4)"
       id="path924"
       d="m 19.530185,21.622 c -0.78911,-1.138686 -1.208793,-2.398786 -1.825214,-5.480216 -0.919144,-4.59471 -1.47293,-8.8381814 -1.614133,-12.3685417 -0.163945,-4.09894036 -0.06839,-4.24575274 1.591384,-2.4451076 1.871566,2.0304089 7.67499,11.3302313 9.266585,14.8494383 0.298114,0.659168 0.573927,1.683873 0.612918,2.277124 l 0.07089,1.078637 -1.575765,-0.08221 c -1.227075,-0.06402 -1.849389,0.0355 -2.812304,0.449738 -1.146562,0.493238 -2.671234,1.861571 -2.671234,2.397328 0,0.481988 -0.436675,0.198919 -1.043128,-0.676193 z"
       style="color:#000000;clip-rule:nonzero;display:inline;overflow:visible;visibility:visible;opacity:0.98000004;isolation:auto;mix-blend-mode:normal;color-interpolation:sRGB;color-interpolation-filters:linearRGB;solid-color:#000000;solid-opacity:1;fill:#ff0000;fill-opacity:1;fill-rule:nonzero;stroke:#000000;stroke-width:1;stroke-linecap:butt;stroke-linejoin:miter;stroke-miterlimit:4;stroke-dasharray:none;stroke-dashoffset:0;stroke-opacity:1;paint-order:stroke markers fill;color-rendering:auto;image-rendering:auto;shape-rendering:auto;text-rendering:auto;enable-background:accumulate" /><path
       transform="translate(2.5609763e-4)"
       id="path926"
       d="m 8.1090583,45.426105 c 0,-1.050678 2.7380867,-6.891971 5.4050087,-11.530766 2.503048,-4.353754 3.839203,-6.237578 4.981726,-7.023654 0.596892,-0.410673 1.138356,-0.746677 1.203254,-0.746677 0.0649,0 0.247244,0.391621 0.405212,0.87027 0.592828,1.796288 2.93591,3.665483 4.611354,3.678712 0.934613,0.0074 1.018438,0.48948 0.323545,1.860787 -0.692129,1.365849 -3.009998,3.610119 -7.222363,6.993032 -6.138442,4.929728 -9.7077367,7.098385 -9.7077367,5.898296 z"
       style="color:#000000;clip-rule:nonzero;display:inline;overflow:visible;visibility:visible;opacity:0.98000004;isolation:auto;mix-blend-mode:normal;color-interpolation:sRGB;color-interpolation-filters:linearRGB;solid-color:#000000;solid-opacity:1;fill:#ff0000;fill-opacity:1;fill-rule:nonzero;stroke:#000000;stroke-width:1;stroke-linecap:butt;stroke-linejoin:miter;stroke-miterlimit:4;stroke-dasharray:none;stroke-dashoffset:0;stroke-opacity:1;paint-order:stroke markers fill;color-rendering:auto;image-rendering:auto;shape-rendering:auto;text-rendering:auto;enable-background:accumulate" /><path
       transform="translate(2.5609763e-4)"
       id="path928"
       d="m 32.656554,31.184018 c -1.393337,-0.176661 -3.693838,-1.073541 -3.693838,-1.440089 0,-0.09541 0.321676,-0.481655 0.714836,-0.858327 1.350817,-1.294164 1.756074,-3.610316 1.080663,-6.17628 l -0.173505,-0.659167 1.645899,0.0035 c 1.279695,0.0027 2.28131,0.217331 4.501733,0.964453 6.704731,2.25599 14.800988,5.904525 14.954844,6.73932 0.09609,0.521368 -0.91415,0.841346 -3.668542,1.161954 -2.76868,0.322272 -13.455463,0.506347 -15.36209,0.264606 z"
       style="color:#000000;clip-rule:nonzero;display:inline;overflow:visible;visibility:visible;opacity:0.98000004;isolation:auto;mix-blend-mode:normal;color-interpolation:sRGB;color-interpolation-filters:linearRGB;solid-color:#000000;solid-opacity:1;fill:#ff0000;fill-opacity:1;fill-rule:nonzero;stroke:#000000;stroke-width:1;stroke-linecap:butt;stroke-linejoin:miter;stroke-miterlimit:4;stroke-dasharray:none;stroke-dashoffset:0;stroke-opacity:1;paint-order:stroke markers fill;color-rendering:auto;image-rendering:auto;shape-rendering:auto;text-rendering:auto;enable-background:accumulate" /></g></svg>