<?xml version="1.0" encoding="UTF-8" standalone="no"?>
<!-- Created with Inkscape (http://www.inkscape.org/) -->

<svg
   xmlns:dc="http://purl.org/dc/elements/1.1/"
   xmlns:cc="http://creativecommons.org/ns#"
   xmlns:rdf="http://www.w3.org/1999/02/22-rdf-syntax-ns#"
   xmlns:svg="http://www.w3.org/2000/svg"
   xmlns="http://www.w3.org/2000/svg"
   xmlns:sodipodi="http://sodipodi.sourceforge.net/DTD/sodipodi-0.dtd"
   xmlns:inkscape="http://www.inkscape.org/namespaces/inkscape"
   width="210mm"
   height="297mm"
   viewBox="0 0 210 297"
   version="1.1"
   id="svg8"
   inkscape:version="0.92.3 (2405546, 2018-03-11)"
   sodipodi:docname="tolomet.svg">
  <defs
     id="defs2">
    <clipPath
       clipPathUnits="userSpaceOnUse"
       id="clipPath4551">
      <g
         inkscape:label="Clip"
         id="use4553">
        <path
           inkscape:connector-curvature="0"
           id="path819"
           d="m 49.902447,193.26745 v -1.71979 h 1.00542 c 0.55298,0 1.13793,0.13252 1.2999,0.29449 0.20297,0.20296 2.46903,0.28528 7.29116,0.26488 l 6.99668,-0.0296 v 1.4549 1.4549 h -1.00457 c -0.96599,0 -1.00855,-0.0381 -1.10835,-0.99219 l -0.10378,-0.99218 -0.0445,0.99218 -0.0445,0.99219 h -2.36811 c -1.97322,0 -2.41438,-0.0772 -2.64563,-0.46302 -0.26432,-0.44097 -0.29469,-0.44097 -0.63763,0 -0.30628,0.39383 -0.82031,0.46302 -3.43978,0.46302 h -3.07969 v -0.65315 c 0,-0.7732 -0.66402,-0.66524 -0.87519,0.14229 -0.0783,0.29955 -0.36273,0.51086 -0.68754,0.51086 -0.50537,0 -0.55393,-0.15075 -0.55393,-1.71979 z m 4.15211,0.20347 c -0.0671,-0.25743 -0.12639,-0.11087 -0.13178,0.3257 -0.005,0.43656 0.0495,0.64718 0.12197,0.46805 0.0725,-0.17913 0.0769,-0.53632 0.01,-0.79375 z m 14.10414,0.354 c 0,-0.78909 -0.12743,-1.21122 -0.39687,-1.31461 -0.21828,-0.0838 -0.39688,-0.33462 -0.39688,-0.55747 0,-0.30891 0.30908,-0.40518 1.30087,-0.40518 0.73613,0 1.34437,0.13052 1.40108,0.30066 0.0551,0.16536 0.59063,0.30066 1.19,0.30066 1.03824,0 1.09935,0.0452 1.29228,0.95611 l 0.2025,0.95611 0.15091,-0.92604 0.1509,-0.92604 2.51354,-0.0436 c 1.41566,-0.0246 2.658,0.0763 2.84427,0.23083 0.1819,0.15096 0.33073,0.79154 0.33073,1.4235 v 1.14902 l -4.6159,0.005 -4.61591,0.005 -0.0989,-1.25206 -0.0989,-1.25207 -0.0477,1.25678 c -0.0404,1.06448 -0.12865,1.25676 -0.57685,1.25676 -0.44886,0 -0.52917,-0.17639 -0.52917,-1.16232 z m -20.97912,-2.97166 c -0.10315,-0.10315 -0.18754,-1.23099 -0.18754,-2.5063 0,-2.20319 -0.0297,-2.32296 -0.59532,-2.4033 -0.43606,-0.0619 -0.59531,-0.26149 -0.59531,-0.746 0,-0.65044 0.0353,-0.66146 2.11667,-0.66146 2.08139,0 2.11666,0.011 2.11666,0.66146 0,0.52269 -0.1506,0.67882 -0.71789,0.74424 -0.71633,0.0826 -0.71806,0.0881 -0.79375,2.51354 -0.0692,2.2161 -0.12355,2.43759 -0.61591,2.50807 -0.29703,0.0425 -0.62445,-0.007 -0.72761,-0.11025 z m 0.87079,-2.7518 v -2.38786 l 0.79375,-0.15875 c 1.37751,-0.27551 0.86179,-0.62178 -0.92604,-0.62178 -1.63,0 -2.40109,0.39561 -1.12448,0.57692 0.56185,0.0798 0.59959,0.22209 0.67138,2.53194 0.0984,3.16438 0.58539,3.21391 0.58539,0.0595 z m 2.55455,2.43318 c -0.64644,-0.7143 -0.61426,-3.77243 0.046,-4.36993 0.56232,-0.5089 2.17608,-0.58254 2.63823,-0.12039 0.49264,0.49265 0.41608,4.04404 -0.0983,4.5584 -0.5688,0.5688 -2.04473,0.52994 -2.58593,-0.0681 z m 2.31406,-0.54556 c 0.33514,-0.37032 0.43169,-0.86625 0.37174,-1.90954 -0.0696,-1.21213 -0.18025,-1.46482 -0.7905,-1.80609 -0.6477,-0.36221 -0.75721,-0.35363 -1.25677,0.0985 -0.43016,0.38929 -0.54725,0.81482 -0.54725,1.98883 0,0.82146 0.14288,1.63645 0.3175,1.81107 0.47253,0.47253 1.39209,0.38434 1.90528,-0.18274 z m -1.51722,-0.20531 c -0.097,-0.097 -0.17639,-0.81139 -0.17639,-1.5875 0,-1.31197 0.0445,-1.41111 0.63315,-1.41111 0.73071,0 0.95435,0.43244 0.95435,1.84541 0,0.67545 -0.13819,1.06142 -0.41852,1.16899 -0.53799,0.20645 -0.77411,0.20269 -0.99259,-0.0158 z m 0.88194,-1.41111 c 0,-1.04711 -0.40353,-1.42901 -0.69829,-0.66087 -0.19966,0.5203 0.10631,1.7192 0.43875,1.7192 0.14275,0 0.25954,-0.47625 0.25954,-1.05833 z m 1.76389,2.46944 c -0.097,-0.097 -0.17639,-1.29554 -0.17639,-2.66341 v -2.48701 l 0.72761,0.0837 c 0.71678,0.0825 0.72719,0.11028 0.70011,1.86965 l -0.0275,1.78594 h 0.99763 c 0.55054,0 1.05744,0.14822 1.13108,0.33073 0.0734,0.1819 0.14285,-0.45449 0.15434,-1.4142 0.016,-1.3361 0.13425,-1.84753 0.50474,-2.18281 0.69082,-0.62518 2.30267,-0.57193 2.7673,0.0914 l 0.37074,0.52931 0.47902,-0.52931 c 0.31848,-0.35191 0.81495,-0.52931 1.48134,-0.52931 0.70248,0 1.11323,0.15835 1.37307,0.52931 l 0.37074,0.52931 0.47902,-0.52931 c 0.54808,-0.60562 2.28118,-0.73204 2.72244,-0.19858 0.15047,0.1819 0.3258,0.68792 0.38963,1.12448 0.0933,0.63787 0.12385,0.57292 0.15571,-0.33073 l 0.0396,-1.12448 h 1.42281 c 0.83343,0 1.53926,0.14033 1.70395,0.33875 0.15462,0.18632 0.32577,0.98999 0.38032,1.78594 0.0979,1.42839 0.0998,1.42399 0.14814,-0.33875 l 0.0489,-1.78594 h 1.42281 c 1.71908,0 2.14652,0.39995 2.07937,1.94563 -0.067,1.54103 0.11678,1.99587 0.74036,1.8328 0.41713,-0.10909 0.51996,-0.36533 0.51996,-1.29574 0,-0.98338 -0.0805,-1.15977 -0.52917,-1.15977 -0.39058,0 -0.52916,-0.17639 -0.52916,-0.67355 0,-0.66278 0.0285,-0.67229 1.7832,-0.59531 1.47853,0.0649 1.7989,0.16055 1.8751,0.56001 0.0584,0.30629 -0.10033,0.53204 -0.43583,0.61977 -0.96018,0.2511 -0.96242,2.31223 -0.003,2.61679 0.34235,0.10866 0.488,0.35581 0.43381,0.73616 -0.0714,0.50124 -0.27393,0.58256 -1.62524,0.6526 -0.84903,0.044 -1.69125,-0.0425 -1.87161,-0.19214 -0.22614,-0.18767 -0.41901,-0.18107 -0.62135,0.0213 -0.49843,0.49843 -1.12274,0.0386 -1.12274,-0.82687 0,-1.07538 -0.47385,-1.02801 -0.57855,0.0578 -0.0636,0.65963 -0.22183,0.87962 -0.67941,0.9446 -0.36157,0.0513 -0.66045,-0.082 -0.75889,-0.3385 -0.14681,-0.38257 -0.19384,-0.38023 -0.48972,0.0244 -0.4924,0.67339 -1.1976,0.26804 -1.1976,-0.68837 0,-1.06126 -0.45615,-1.02545 -0.73686,0.0578 -0.29858,1.15228 -1.17106,1.19315 -1.41205,0.0661 -0.0933,-0.43657 -0.18382,-0.5939 -0.20103,-0.34963 -0.0824,1.16948 -1.73929,1.66477 -2.88486,0.86238 -0.5349,-0.37465 -0.60487,-0.37465 -0.74864,0 -0.11289,0.29419 -0.51983,0.41329 -1.41219,0.41329 -1.24667,0 -1.85364,-0.36395 -2.20624,-1.32292 -0.12386,-0.33685 -0.14909,-0.33305 -0.16682,0.0251 -0.0553,1.11781 -1.7652,1.66143 -2.84559,0.9047 -0.49642,-0.3477 -0.5786,-0.3477 -0.71202,0 -0.1097,0.28588 -0.574,0.39308 -1.70255,0.39308 -0.85343,0 -1.63108,-0.0794 -1.72809,-0.17639 z m 2.99861,-0.60139 c 0,-0.13673 -0.44648,-0.28556 -0.99219,-0.33072 l -0.99218,-0.0821 -0.0782,-1.78594 c -0.10976,-2.50556 -0.58323,-2.23707 -0.58323,0.33073 v 2.11666 h 1.32292 c 0.7276,0 1.32292,-0.11187 1.32292,-0.24861 z m 3.38667,-0.0689 c 0.43531,-0.43531 0.40787,-3.0695 -0.0366,-3.51397 -0.51252,-0.51252 -1.34969,-0.58973 -1.85422,-0.17101 -0.31296,0.25974 -0.43752,0.79078 -0.43752,1.8653 0,1.66106 0.29472,2.13718 1.32292,2.13718 0.37835,0 0.83079,-0.14287 1.00542,-0.3175 z m -1.68475,-0.55971 c -0.0813,-0.21184 -0.11053,-0.9048 -0.065,-1.53991 0.0741,-1.03325 0.15243,-1.15475 0.74429,-1.15475 0.62538,0 0.66146,0.0794 0.66146,1.45521 0,1.30852 -0.0601,1.46374 -0.59649,1.53991 -0.3416,0.0485 -0.65966,-0.0799 -0.7443,-0.30046 z m 0.94392,-1.23945 c 0,-0.58209 -0.10616,-1.05834 -0.2359,-1.05834 -0.31981,0 -0.59578,1.18082 -0.39702,1.69877 0.29545,0.76992 0.63292,0.42844 0.63292,-0.64043 z m 4.73081,0.66146 c -0.0614,-1.51722 -0.25704,-1.73345 -0.94553,-1.04496 -0.37061,0.37061 -0.36464,0.44361 0.0619,0.75549 0.64506,0.47168 0.31794,1.28017 -0.47255,1.16792 -0.52879,-0.0751 -0.60551,-0.2574 -0.67585,-1.60606 -0.0769,-1.47507 -0.0588,-1.52135 0.59532,-1.52135 0.37106,0 0.67466,0.11906 0.67466,0.26458 0,0.14552 0.18851,0.26458 0.41892,0.26458 0.59743,0 0.32162,-0.59294 -0.4882,-1.04955 -0.6231,-0.35133 -0.74016,-0.34119 -1.23556,0.10715 -0.43016,0.38929 -0.54725,0.81482 -0.54725,1.98883 0,1.76229 0.28463,2.12857 1.65402,2.12857 h 1.01901 z m 3.3128,0.95496 c 0.33514,-0.37032 0.43168,-0.86625 0.37174,-1.90954 -0.07,-1.21875 -0.17861,-1.46391 -0.803,-1.8131 -0.67094,-0.37523 -0.76089,-0.36492 -1.27158,0.14576 -0.63483,0.63484 -0.79606,3.02874 -0.24842,3.68861 0.44839,0.54027 1.41109,0.48515 1.95126,-0.11173 z m -1.51723,-0.20531 c -0.097,-0.097 -0.17638,-0.81139 -0.17638,-1.5875 0,-1.31197 0.0445,-1.41111 0.63315,-1.41111 0.70881,0 0.95435,0.43442 0.95435,1.68851 0,1.14276 -0.81853,1.90269 -1.41112,1.3101 z m 0.88195,-1.43316 c 0,-0.74601 -0.10236,-1.04667 -0.33073,-0.97147 -0.62521,0.2059 -0.57317,2.05185 0.0578,2.05185 0.15009,0 0.27289,-0.48617 0.27289,-1.08038 z m 2.64583,1.1951 c 0,-0.87331 0.0542,-0.93738 0.7276,-0.8599 0.60628,0.0698 0.74143,0.22711 0.81052,0.94362 0.16309,1.69158 0.56588,0.82263 0.4792,-1.0338 -0.0975,-2.08731 -0.51455,-2.69402 -1.7525,-2.54929 -0.63894,0.0747 -0.66434,0.15243 -0.73854,2.26017 -0.0488,1.38462 0.0238,2.18281 0.19843,2.18281 0.15141,0 0.27529,-0.42462 0.27529,-0.94361 z m 0,-2.09909 c 0,-0.52128 0.13418,-0.66146 0.63315,-0.66146 0.7157,0 1.06335,0.57891 0.61617,1.02609 -0.55173,0.55173 -1.24932,0.34813 -1.24932,-0.36463 z m 3.70416,2.09909 c 0,-0.87331 0.0542,-0.93738 0.72761,-0.8599 0.60628,0.0698 0.74143,0.22711 0.81051,0.94362 0.0456,0.47294 0.18673,0.85989 0.31363,0.85989 0.32023,0 0.19284,-3.6175 -0.13908,-3.94942 -0.14833,-0.14832 -0.68365,-0.30264 -1.18961,-0.34294 l -0.91993,-0.0733 -0.0768,2.18281 c -0.0487,1.38462 0.0238,2.18281 0.19844,2.18281 0.15141,0 0.27528,-0.42462 0.27528,-0.94361 z m 0.17639,-1.61403 c -0.097,-0.097 -0.17639,-0.39466 -0.17639,-0.66145 0,-0.53637 1.15777,-0.70176 1.46237,-0.2089 0.35207,0.56965 -0.80415,1.35218 -1.28598,0.87035 z m 5.64445,2.29306 c 0,-0.14552 -0.23813,-0.26458 -0.52917,-0.26458 -0.4692,0 -0.52917,-0.17639 -0.52917,-1.55664 0,-1.38557 0.0654,-1.57606 0.59532,-1.7333 l 0.59531,-0.17666 -0.64543,-0.26109 c -0.70677,-0.2859 -2.1327,-0.0792 -2.1327,0.30913 0,0.13395 0.23813,0.24356 0.52917,0.24356 0.4661,0 0.52917,0.17639 0.52917,1.47998 0,1.25746 -0.0796,1.50078 -0.52917,1.61835 -0.98905,0.25865 -0.53417,0.60583 0.79375,0.60583 0.7276,0 1.32292,-0.11906 1.32292,-0.26458 z m -16.19529,-1.16394 c -0.18764,-0.2036 -0.38285,-0.33059 -0.43381,-0.28218 -0.15693,0.14908 0.24081,0.65237 0.51556,0.65237 0.14268,0 0.10588,-0.16658 -0.0818,-0.37019 z m -1.87423,-1.54804 c -0.0631,-0.32742 -0.11467,-0.0595 -0.11467,0.59531 0,0.65485 0.0516,0.92274 0.11467,0.59532 0.0631,-0.32742 0.0631,-0.86321 0,-1.19063 z m 7.39683,0.79375 c -0.0734,-0.1819 -0.13345,-0.0331 -0.13345,0.33073 0,0.3638 0.0601,0.51263 0.13345,0.33073 0.0734,-0.1819 0.0734,-0.47956 0,-0.66146 z m -3.69226,-0.79066 c -0.0633,-0.32912 -0.11747,-0.12215 -0.12041,0.45993 -0.003,0.58209 0.0488,0.85137 0.11507,0.5984 0.0662,-0.25296 0.0686,-0.72921 0.005,-1.05833 z m -1.96246,0.32728 c 0.0762,-0.29125 0.0305,-0.46281 -0.10143,-0.38126 -0.13195,0.0815 -0.23991,0.31984 -0.23991,0.52953 0,0.54762 0.17979,0.46953 0.34134,-0.14827 z m 86.574283,1.92519 c -0.29104,-0.0718 -1.19032,-0.74255 -1.99839,-1.49067 -0.80807,-0.74811 -2.09451,-1.83645 -2.85876,-2.41853 -2.43299,-1.85307 -3.37034,-3.85069 -3.2967,-7.0257 l 0.0279,-1.20487 -2.9485,0.98425 c -4.90792,1.63832 -10.66189,2.66953 -19.08809,3.4209 -1.74625,0.15571 -9.57461,0.35136 -17.39635,0.43476 -12.756133,0.13602 -14.221363,0.10924 -14.221363,-0.25997 0,-0.22639 0.20836,-0.46607 0.46302,-0.53261 0.8644,-0.22589 -7.71176,-0.17453 -13.6501,0.0817 -7.01006,0.30254 -10.39748,0.61682 -15.91708,1.47679 -3.12256,0.4865 -5.15843,0.63911 -8.53281,0.63964 l -4.43177,6.8e-4 v -0.61601 c 0,-0.52113 0.20135,-0.6625 1.30714,-0.91775 3.45987,-0.79863 15.49397,-2.22677 27.40015,-3.25169 6.02079,-0.51829 7.67096,-0.55408 18.38212,-0.39871 7.611613,0.11042 11.863253,0.26837 12.038543,0.44725 0.18606,0.18987 0.0756,0.43626 -0.35253,0.78606 -0.62322,0.50925 -0.6223,0.50943 1.85208,0.36718 8.22333,-0.47275 14.02104,-1.13956 20.86416,-2.39966 6.38858,-1.1764 14.04371,-3.26942 17.42928,-4.76541 1.57522,-0.69605 2.41595,-0.7998 2.41161,-0.29761 -0.002,0.1819 -0.18017,0.9152 -0.39688,1.62955 -0.47077,1.55186 -0.51414,4.58882 -0.0859,6.01803 0.16944,0.56553 0.72684,1.41278 1.23867,1.88278 3.5901,3.29666 6.13189,5.92328 6.06755,6.27002 -0.17123,0.92276 -2.59025,1.56278 -4.307,1.13955 z m 3.49161,-1.22719 c 0.0435,-0.0436 -1.07172,-1.14109 -2.4784,-2.43894 -1.40668,-1.29786 -2.95119,-2.75193 -3.43225,-3.23127 -1.5524,-1.54685 -2.08661,-4.78281 -1.32424,-8.02155 l 0.3495,-1.48474 -1.6104,0.63636 c -9.29385,3.67253 -27.82869,6.96333 -39.21966,6.96333 -2.21718,0 -2.7397,-0.0732 -2.7397,-0.38372 0,-0.21105 0.19056,-0.49037 0.42347,-0.62072 0.75875,-0.42461 -2.82063,-0.57922 -13.455053,-0.58117 -8.12168,-0.002 -11.53224,0.10982 -16.40417,0.5354 -11.3225,0.98905 -24.86941,2.61511 -25.2899,3.03559 -0.31836,0.31837 7.67991,0.0982 9.74649,-0.26826 6.29611,-1.11655 12.89263,-1.58761 26.27253,-1.87615 7.1215,-0.15357 8.40108,-0.12482 8.33438,0.18724 -0.0433,0.20277 -0.19785,0.46407 -0.34337,0.58067 -0.50759,0.40672 25.328883,0.0175 29.828533,-0.44932 7.34633,-0.7622 13.56374,-2.04632 18.00094,-3.71784 2.61964,-0.98683 2.6203,-0.98656 2.41512,1.01618 -0.27423,2.67661 0.34942,4.26666 2.41993,6.16987 5.13665,4.72158 5.7684,5.09089 7.51459,4.39294 0.50185,-0.20059 0.94809,-0.40035 0.99166,-0.4439 z M 77.507987,174.2924 c -0.14032,-0.18675 -0.59407,-1.17298 -1.00832,-2.19163 -4.15141,-10.20833 -6.84762,-14.95857 -10.7785,-18.98982 -2.2303,-2.28723 -4.23037,-3.64158 -6.51382,-4.41082 -1.83086,-0.61677 -2.40728,-0.65653 -3.82203,-0.26366 -2.18311,0.60626 -3.82264,2.80954 -4.83866,6.50244 -0.34589,1.25718 -0.69861,2.35551 -0.78384,2.44073 -0.37015,0.37016 -1.63039,-0.73451 -2.2023,-1.93044 -0.81488,-1.70401 -1.09757,-4.87068 -0.80256,-8.99035 0.3931,-5.48943 1.47409,-8.7131 3.75482,-11.19745 2.77502,-3.02277 6.80845,-3.26338 11.54194,-0.68853 7.30742,3.97498 13.37442,13.00717 16.21432,24.13894 0.81247,3.18471 0.85055,3.56105 0.84596,8.36188 -0.004,3.70051 -0.10727,5.33596 -0.39313,6.1976 -0.41378,1.2472 -0.79993,1.57202 -1.21388,1.02111 z m 0.99728,-2.39006 c 1.09717,-6.18612 -0.37037,-14.42548 -3.89618,-21.87484 -5.27475,-11.1445 -14.37053,-18.30005 -20.80979,-16.3708 -1.35491,0.40594 -3.58667,2.44223 -4.48437,4.0916 -1.99815,3.67127 -2.886,11.91337 -1.76353,16.37113 0.1656,0.65767 0.66323,1.57923 1.10584,2.04792 l 0.80474,0.85217 0.44366,-1.73839 c 0.9638,-3.77649 2.77132,-6.51271 4.72904,-7.15882 3.37638,-1.1143 7.5268,0.56747 11.54518,4.67817 3.46086,3.54039 6.57995,8.87822 9.92506,16.98519 0.91569,2.21919 1.75382,4.0349 1.86251,4.0349 0.10869,0 0.35072,-0.86321 0.53784,-1.91823 z m 23.525023,-3.24115 c -0.0571,-0.78564 -0.0598,-0.78699 -0.26951,-0.13229 -0.3231,1.00887 -0.31027,-4.58497 0.0152,-6.61458 0.4266,-2.66051 2.33322,-5.07324 4.99429,-6.32002 1.29489,-0.60669 1.7765,-0.68475 3.98637,-0.6461 4.07506,0.0713 8.14904,1.42343 12.79856,4.24786 3.69629,2.24538 11.38642,9.00839 11.09799,9.76003 -0.12845,0.33472 -0.22978,0.33194 -0.76861,-0.0211 -0.34136,-0.22367 -1.19018,-0.72095 -1.88627,-1.10508 -0.69608,-0.38413 -2.21811,-1.25264 -3.38228,-1.93003 -3.59644,-2.09265 -6.83629,-3.48639 -10.58903,-4.55526 -1.74632,-0.4974 -2.77368,-0.60295 -5.94743,-0.61109 -3.5261,-0.009 -3.93277,0.0406 -5.02708,0.61315 -2.43179,1.27241 -4.4629,3.80629 -4.52922,5.65033 -0.0172,0.47874 -0.1222,1.22763 -0.23328,1.66419 l -0.20198,0.79375 z m 30.43634,-1.64685 c -7.8319,-7.14802 -12.849,-10.17994 -18.75673,-11.33501 -3.64654,-0.71296 -6.00175,-0.35413 -8.06333,1.2285 -1.37713,1.05718 -2.88594,2.90701 -3.16619,3.88179 -0.37414,1.30137 -0.64049,4.41525 -0.43568,5.09345 l 0.19976,0.66145 0.0228,-0.6879 c 0.0464,-1.40286 2.5882,-4.11126 4.77179,-5.08452 1.74331,-0.77702 6.02443,-0.92188 9.1532,-0.30972 2.69288,0.52687 7.16153,2.04709 9.51556,3.23716 2.22832,1.12651 7.59258,4.2677 8.05816,4.71867 0.21308,0.2064 0.44652,0.37527 0.51874,0.37527 0.0722,0 -0.74588,-0.80061 -1.81803,-1.77914 z m -0.6027,-14.09586 c -0.24095,-2.26858 0.0234,-3.47706 1.27195,-5.81403 1.8475,-3.45814 4.52365,-5.56305 7.07277,-5.56305 1.92722,0 2.8448,1.44431 2.87377,4.52347 0.0189,2.01386 -0.78808,4.97104 -1.11072,4.06999 -0.18614,-0.51984 -0.1884,-0.5198 -0.30884,0.006 -0.0667,0.29104 -0.11254,-0.39038 -0.10181,-1.51426 0.0186,-1.95037 -0.0184,-2.08148 -0.81376,-2.87872 -0.74638,-0.74818 -0.93887,-0.81547 -1.84593,-0.6453 -0.78435,0.14714 -1.43234,0.61723 -2.87407,2.08496 -1.89743,1.93167 -2.10846,2.32802 -3.05166,5.73144 -0.46369,1.67319 -0.47723,1.69044 -0.49989,0.63674 -0.0273,-1.27021 0.76821,-3.73796 1.59458,-4.94645 1.62794,-2.38069 3.9394,-4.15695 5.4095,-4.15695 0.88511,0 2.49606,1.55895 2.50168,2.42093 0.002,0.34198 0.11098,0.79071 0.24167,0.99719 0.40752,0.64384 0.64599,-1.95565 0.304,-3.3138 -0.49626,-1.97084 -0.9618,-2.48557 -2.248,-2.48557 -2.71434,0 -5.87113,2.81562 -7.41605,6.61458 -0.26804,0.65912 -0.55837,2.25364 -0.65036,3.57187 l -0.16617,2.38125 z"
           style="fill:#000000;stroke-width:0.26458332" />
      </g>
    </clipPath>
  </defs>
  <sodipodi:namedview
     id="base"
     pagecolor="#ffffff"
     bordercolor="#666666"
     borderopacity="1.0"
     inkscape:pageopacity="0.0"
     inkscape:pageshadow="2"
     inkscape:zoom="1.386685"
     inkscape:cx="208.79538"
     inkscape:cy="392.94345"
     inkscape:document-units="mm"
     inkscape:current-layer="layer1"
     showgrid="false"
     inkscape:window-width="1680"
     inkscape:window-height="987"
     inkscape:window-x="0"
     inkscape:window-y="0"
     inkscape:window-maximized="1" />
  <metadata
     id="metadata5">
    <rdf:RDF>
      <cc:Work
         rdf:about="">
        <dc:format>image/svg+xml</dc:format>
        <dc:type
           rdf:resource="http://purl.org/dc/dcmitype/StillImage" />
        <dc:title />
      </cc:Work>
    </rdf:RDF>
  </metadata>
  <g
     inkscape:label="Capa 1"
     inkscape:groupmode="layer"
     id="layer1">
    <path
       inkscape:connector-curvature="0"
       id="path4544"
       d="m 142.07676,191.48553 c -0.29104,-0.0718 -1.19032,-0.74255 -1.99839,-1.49067 -0.80807,-0.74811 -2.09451,-1.83645 -2.85876,-2.41853 -2.43299,-1.85307 -3.37034,-3.85069 -3.2967,-7.0257 l 0.0279,-1.20487 -2.9485,0.98425 c -4.90792,1.63832 -10.66189,2.66953 -19.08809,3.4209 -1.74625,0.15571 -9.57461,0.35136 -17.396348,0.43476 -12.756133,0.13602 -14.221363,0.10924 -14.221363,-0.25997 0,-0.22639 0.20836,-0.46607 0.46302,-0.53261 0.8644,-0.22589 -7.71176,-0.17453 -13.6501,0.0817 -7.01006,0.30254 -10.39748,0.61682 -15.91708,1.47679 -3.12256,0.4865 -5.15843,0.63911 -8.53281,0.63964 l -4.43177,6.8e-4 v -0.61601 c 0,-0.52113 0.20135,-0.6625 1.30714,-0.91775 3.45987,-0.79863 15.49397,-2.22677 27.40015,-3.25169 6.02079,-0.51829 7.67096,-0.55408 18.38212,-0.39871 7.611613,0.11042 11.863253,0.26837 12.038543,0.44725 0.18606,0.18987 0.0756,0.43626 -0.35253,0.78606 -0.62322,0.50925 -0.6223,0.50943 1.85208,0.36718 8.223328,-0.47275 14.021038,-1.13956 20.864158,-2.39966 6.38858,-1.1764 14.04371,-3.26942 17.42928,-4.76541 1.57522,-0.69605 2.41595,-0.7998 2.41161,-0.29761 -0.002,0.1819 -0.18017,0.9152 -0.39688,1.62955 -0.47077,1.55186 -0.51414,4.58882 -0.0859,6.01803 0.16944,0.56553 0.72684,1.41278 1.23867,1.88278 3.5901,3.29666 6.13189,5.92328 6.06755,6.27002 -0.17123,0.92276 -2.59025,1.56278 -4.307,1.13955 z m 3.49161,-1.22719 c 0.0435,-0.0436 -1.07172,-1.14109 -2.4784,-2.43894 -1.40668,-1.29786 -2.95119,-2.75193 -3.43225,-3.23127 -1.5524,-1.54685 -2.08661,-4.78281 -1.32424,-8.02155 l 0.3495,-1.48474 -1.6104,0.63636 c -9.29385,3.67253 -27.82869,6.96333 -39.219658,6.96333 -2.21718,0 -2.7397,-0.0732 -2.7397,-0.38372 0,-0.21105 0.19056,-0.49037 0.42347,-0.62072 0.75875,-0.42461 -2.82063,-0.57922 -13.455053,-0.58117 -8.12168,-0.002 -11.53224,0.10982 -16.40417,0.5354 -11.3225,0.98905 -24.86941,2.61511 -25.2899,3.03559 -0.31836,0.31837 7.67991,0.0982 9.74649,-0.26826 6.29611,-1.11655 12.89263,-1.58761 26.27253,-1.87615 7.1215,-0.15357 8.40108,-0.12482 8.33438,0.18724 -0.0433,0.20277 -0.19785,0.46407 -0.34337,0.58067 -0.50759,0.40672 25.328881,0.0175 29.828531,-0.44932 7.34633,-0.7622 13.56374,-2.04632 18.00094,-3.71784 2.61964,-0.98683 2.6203,-0.98656 2.41512,1.01618 -0.27423,2.67661 0.34942,4.26666 2.41993,6.16987 5.13665,4.72158 5.7684,5.09089 7.51459,4.39294 0.50185,-0.20059 0.94809,-0.40035 0.99166,-0.4439 z M 70.066679,176.00962 c -0.14032,-0.18675 -0.59407,-1.17298 -1.00832,-2.19163 -4.15141,-10.20833 -6.84762,-14.95857 -10.7785,-18.98982 -2.2303,-2.28723 -4.23037,-3.64158 -6.51382,-4.41082 -1.83086,-0.61677 -2.40728,-0.65653 -3.82203,-0.26366 -2.18311,0.60626 -3.82264,2.80954 -4.83866,6.50244 -0.34589,1.25718 -0.69861,2.35551 -0.78384,2.44073 -0.37015,0.37016 -1.63039,-0.73451 -2.2023,-1.93044 -0.81488,-1.70401 -1.09757,-4.87068 -0.80256,-8.99035 0.3931,-5.48943 1.47409,-8.7131 3.75482,-11.19745 2.77502,-3.02277 6.80845,-3.26338 11.54194,-0.68853 7.30742,3.97498 13.374428,13.00717 16.21432,24.13894 0.435206,1.70591 0.559861,2.60603 0.713982,3.81199 0.133601,1.04541 0.324912,2.32066 0.322781,4.54989 -0.004,3.70051 -0.298073,5.33596 -0.583933,6.1976 -0.41378,1.2472 -0.79993,1.57202 -1.21388,1.02111 z m 0.99728,-2.39006 c 1.09717,-6.18612 -0.37037,-14.42548 -3.89618,-21.87484 -5.27475,-11.1445 -14.37053,-18.30005 -20.80979,-16.3708 -1.35491,0.40594 -3.58667,2.44223 -4.48437,4.0916 -1.99815,3.67127 -2.886,11.91337 -1.76353,16.37113 0.1656,0.65767 0.66323,1.57923 1.10584,2.04792 l 0.80474,0.85217 0.44366,-1.73839 c 0.9638,-3.77649 2.77132,-6.51271 4.72904,-7.15882 3.37638,-1.1143 7.5268,0.56747 11.54518,4.67817 3.46086,3.54039 6.57995,8.87822 9.92506,16.98519 0.91569,2.21919 1.75382,4.0349 1.86251,4.0349 0.10869,0 0.35072,-0.86321 0.53784,-1.91823 z m 23.525023,-3.24115 c -0.0571,-0.78564 0.26743,0.13906 0.05772,0.79376 -0.3231,1.00887 -0.6375,-5.51102 -0.31203,-7.54063 0.4266,-2.66051 2.33322,-5.07324 4.99429,-6.32002 1.294888,-0.60669 1.776498,-0.68475 3.986368,-0.6461 4.07506,0.0713 8.14904,1.42343 12.79856,4.24786 3.69629,2.24538 11.38642,9.00839 11.09799,9.76003 -0.12845,0.33472 -0.22978,0.33194 -0.76861,-0.0211 -0.34136,-0.22367 -1.19018,-0.72095 -1.88627,-1.10508 -0.69608,-0.38413 -2.21811,-1.25264 -3.38228,-1.93003 -3.59644,-2.09265 -6.83629,-3.48639 -10.58903,-4.55526 -1.74632,-0.4974 -2.77368,-0.60295 -5.94743,-0.61109 -3.5261,-0.009 -3.93277,0.0406 -5.027078,0.61315 -2.43179,1.27241 -4.4629,3.80629 -4.52922,5.65033 -0.0172,0.47874 -0.1222,1.22763 -0.23328,1.66419 l -0.20198,0.79375 z m 30.436338,-1.64685 c -7.8319,-7.14802 -12.849,-10.17994 -18.75673,-11.33501 -3.64654,-0.71296 -6.00175,-0.35413 -8.063328,1.2285 -1.37713,1.05718 -2.88594,2.90701 -3.16619,3.88179 -0.37414,1.30137 -0.64049,4.41525 -0.43568,5.09345 l 0.08051,2.1521 0.142052,-2.17855 c 0.0464,-1.40286 2.5882,-4.11126 4.77179,-5.08452 1.743306,-0.77702 6.024426,-0.92188 9.153196,-0.30972 2.69288,0.52687 7.16153,2.04709 9.51556,3.23716 2.22832,1.12651 7.59258,4.2677 8.05816,4.71867 0.21308,0.2064 0.44652,0.37527 0.51874,0.37527 0.0722,0 -0.74588,-0.80061 -1.81803,-1.77914 z m -0.43405,-13.21889 c -0.24095,-2.26858 -0.14525,-4.35403 1.1033,-6.691 1.8475,-3.45814 4.52365,-5.56305 7.07277,-5.56305 1.92722,0 2.8448,1.44431 2.87377,4.52347 0.0189,2.01386 -0.79404,4.95911 -1.11668,4.05806 -0.18614,-0.51984 0.31191,-0.40425 0.19147,0.12155 -0.0667,0.29104 -0.60689,-0.494 -0.59616,-1.61788 0.0186,-1.95037 -0.0184,-2.08148 -0.81376,-2.87872 -0.74638,-0.74818 -0.93887,-0.81547 -1.84593,-0.6453 -0.78435,0.14714 -1.43234,0.61723 -2.87407,2.08496 -1.89743,1.93167 -2.10846,2.32802 -3.05166,5.73144 -0.46369,1.67319 -0.81113,2.3821 -0.49989,0.63674 -0.0273,-1.27021 0.76821,-3.73796 1.59458,-4.94645 1.62794,-2.38069 3.9394,-4.15695 5.4095,-4.15695 0.88511,0 2.49606,1.55895 2.50168,2.42093 0.002,0.34198 -0.056,2.38868 0.0747,2.59516 0.40752,0.64384 0.81294,-3.55362 0.47095,-4.91177 -0.49626,-1.97084 -0.9618,-2.48557 -2.248,-2.48557 -2.71434,0 -5.87113,2.81562 -7.41605,6.61458 -0.26804,0.65912 -0.55837,2.25364 -0.65036,3.57187 l 0.16846,2.31144 -0.112,-0.15798 -0.1476,-0.29803 z"
       style="fill:#000000;stroke-width:0.26458332"
       sodipodi:nodetypes="cccccccsscccccscscccssccccccccccsccsssccsccscccccccccccccccsssssscccccsccccccccsccccsccccccccccccccccccccscccsccccscsccccccccscccscscccc" />
  </g>
</svg>
