<svg
    xmlns="http://www.w3.org/2000/svg"
    viewBox="0 0 24 24"
    id="vector">
    <path
        id="path"
        d="M 12 12 C 12 9 14.5 6.5 17.5 6.5 C 20.5 6.5 23 9 23 12 L 12 12 Z M 12 12 C 12 15 9.5 17.5 6.5 17.5 C 3.5 17.5 1 15 1 12 L 12 12 Z M 12 12 C 9 12 6.5 9.5 6.5 6.5 C 6.5 3.5 9 1 12 1 L 12 12 Z M 12 12 C 15 12 17.5 14.5 17.5 17.5 C 17.5 20.5 15 23 12 23 L 12 12 Z"
        fill="#aa0000"/>
    <path
        id="path_1"
        d="M 12 12 C 12 9 14.5 6.5 17.5 6.5 C 20.5 6.5 23 9 23 12 L 12 12 Z M 12 12 C 12 15 9.5 17.5 6.5 17.5 C 3.5 17.5 1 15 1 12 L 12 12 Z M 12 12 C 9 12 6.5 9.5 6.5 6.5 C 6.5 3.5 9 1 12 1 L 12 12 Z M 12 12 C 15 12 17.5 14.5 17.5 17.5 C 17.5 20.5 15 23 12 23 L 12 12 Z"
        fill="#00aa00"/>
    <path
        id="path_2"
        d="M 12 12 C 12 9 14.5 6.5 17.5 6.5 C 20.5 6.5 23 9 23 12 L 12 12 Z M 12 12 C 12 15 9.5 17.5 6.5 17.5 C 3.5 17.5 1 15 1 12 L 12 12 Z M 12 12 C 9 12 6.5 9.5 6.5 6.5 C 6.5 3.5 9 1 12 1 L 12 12 Z M 12 12 C 15 12 17.5 14.5 17.5 17.5 C 17.5 20.5 15 23 12 23 L 12 12 Z"
        fill="#aaaa00"/>
</svg>
